<?xml version="1.0" encoding="UTF-8" standalone="no"?>
<svg
   xmlns:dc="http://purl.org/dc/elements/1.1/"
   xmlns:cc="http://creativecommons.org/ns#"
   xmlns:rdf="http://www.w3.org/1999/02/22-rdf-syntax-ns#"
   xmlns:svg="http://www.w3.org/2000/svg"
   xmlns="http://www.w3.org/2000/svg"
   xmlns:sodipodi="http://sodipodi.sourceforge.net/DTD/sodipodi-0.dtd"
   xmlns:inkscape="http://www.inkscape.org/namespaces/inkscape"
   width="210mm"
   height="297mm"
   viewBox="0 0 210 297"
   version="1.1"
   id="svg8"
   inkscape:version="1.0.1 (3bc2e813f5, 2020-09-07)"
   sodipodi:docname="tapa-bash.svg">
  <defs
     id="defs2" />
  <sodipodi:namedview
     id="base"
     pagecolor="#ffffff"
     bordercolor="#666666"
     borderopacity="1.0"
     inkscape:pageopacity="0.0"
     inkscape:pageshadow="2"
     inkscape:zoom="0.35"
     inkscape:cx="322.47249"
     inkscape:cy="599.99539"
     inkscape:document-units="mm"
     inkscape:current-layer="layer1"
     inkscape:document-rotation="0"
     showgrid="false"
     inkscape:window-width="1864"
     inkscape:window-height="1016"
     inkscape:window-x="56"
     inkscape:window-y="27"
     inkscape:window-maximized="1" />
  <metadata
     id="metadata5">
    <rdf:RDF>
      <cc:Work
         rdf:about="">
        <dc:format>image/svg+xml</dc:format>
        <dc:type
           rdf:resource="http://purl.org/dc/dcmitype/StillImage" />
        <dc:title />
      </cc:Work>
    </rdf:RDF>
  </metadata>
  <g
     inkscape:label="Capa 1"
     inkscape:groupmode="layer"
     id="layer1">
    <rect
       style="fill:#e9e9e9;fill-opacity:1;stroke:#9f9f9f;stroke-width:0.264583;stroke-miterlimit:4;stroke-dasharray:none;stroke-opacity:0.429489"
       id="rect959"
       width="210"
       height="297"
       x="7.2442052e-15"
       y="-0.5632028"
       inkscape:export-xdpi="96"
       inkscape:export-ydpi="96" />
    <g
       id="g889"
       transform="matrix(0.909721,0,0,0.909721,34.132734,245.5547)"
       style="fill:#eb2141;fill-opacity:1"
       inkscape:export-xdpi="96"
       inkscape:export-ydpi="96">
      <g
         id="g857"
         enable-background="new    "
         style="fill:#eb2141;fill-opacity:1">
        <path
           id="path819"
           d="M 49.692,7.128 V 2.942 h 0.812 v 4.135 c 0,1.562 0.812,2.427 2.201,2.427 1.327,0 2.17,-0.802 2.17,-2.376 V 2.942 h 0.812 v 4.124 c 0,2.108 -1.203,3.188 -3.003,3.188 -1.778,0.001 -2.992,-1.089 -2.992,-3.126 z"
           inkscape:connector-curvature="0"
           style="fill:#eb2141;fill-opacity:1" />
        <path
           id="path821"
           d="m 57.479,4.824 h 0.792 V 5.75 c 0.36,-0.576 0.905,-1.038 1.82,-1.038 1.275,0 2.037,0.863 2.037,2.128 v 3.302 H 61.336 V 7.036 c 0,-0.987 -0.524,-1.604 -1.471,-1.604 -0.916,0 -1.594,0.668 -1.594,1.666 v 3.044 h -0.792 z"
           inkscape:connector-curvature="0"
           style="fill:#eb2141;fill-opacity:1" />
        <path
           id="path823"
           d="m 63.835,2.788 h 0.905 v 0.874 h -0.905 z m 0.052,2.036 h 0.792 v 5.317 h -0.792 z"
           inkscape:connector-curvature="0"
           style="fill:#eb2141;fill-opacity:1" />
        <path
           id="path825"
           d="m 65.995,4.824 h 0.874 l 1.79,4.412 1.8,-4.412 h 0.854 l -2.314,5.358 H 68.3 Z"
           inkscape:connector-curvature="0"
           style="fill:#eb2141;fill-opacity:1" />
        <path
           id="path827"
           d="m 73.03,7.807 c 0.113,1.121 0.936,1.77 1.872,1.77 0.74,0 1.234,-0.299 1.676,-0.751 l 0.494,0.442 c -0.535,0.606 -1.172,0.997 -2.19,0.997 -1.45,0 -2.654,-1.121 -2.654,-2.776 0,-1.543 1.07,-2.776 2.551,-2.776 1.573,0 2.479,1.254 2.479,2.817 0,0.072 0,0.154 -0.01,0.277 z M 76.455,7.169 C 76.373,6.213 75.797,5.38 74.758,5.38 c -0.905,0 -1.615,0.761 -1.728,1.789 z"
           inkscape:connector-curvature="0"
           style="fill:#eb2141;fill-opacity:1" />
        <path
           id="path829"
           d="m 78.646,4.824 h 0.792 v 1.389 c 0.391,-0.885 1.162,-1.512 2.17,-1.48 v 0.854 h -0.062 c -1.162,0 -2.107,0.833 -2.107,2.438 v 2.118 H 78.647 V 4.824 Z"
           inkscape:connector-curvature="0"
           style="fill:#eb2141;fill-opacity:1" />
        <path
           id="path831"
           d="m 82.371,9.463 0.4,-0.565 c 0.576,0.442 1.215,0.679 1.842,0.679 0.647,0 1.1,-0.319 1.1,-0.844 V 8.712 c 0,-0.524 -0.627,-0.74 -1.326,-0.936 C 83.565,7.529 82.628,7.261 82.628,6.274 v -0.02 c 0,-0.915 0.761,-1.521 1.81,-1.521 0.658,0 1.369,0.226 1.914,0.586 l -0.36,0.597 C 85.498,5.596 84.941,5.4 84.417,5.4 c -0.628,0 -1.029,0.329 -1.029,0.771 v 0.021 c 0,0.504 0.658,0.699 1.368,0.915 0.823,0.247 1.708,0.565 1.708,1.522 V 8.65 c 0,1.008 -0.834,1.594 -1.893,1.594 -0.771,0 -1.594,-0.298 -2.2,-0.781 z"
           inkscape:connector-curvature="0"
           style="fill:#eb2141;fill-opacity:1" />
        <path
           id="path833"
           d="m 87.955,2.788 h 0.906 v 0.874 h -0.906 z m 0.052,2.036 h 0.791 v 5.317 h -0.791 z"
           inkscape:connector-curvature="0"
           style="fill:#eb2141;fill-opacity:1" />
        <path
           id="path835"
           d="m 90.332,7.498 v -0.02 c 0,-1.728 1.265,-2.766 2.54,-2.766 0.987,0 1.625,0.524 2.036,1.131 V 2.634 H 95.7 v 7.508 h -0.792 v -1.07 c -0.441,0.638 -1.049,1.183 -2.036,1.183 -1.276,0 -2.54,-1.008 -2.54,-2.757 z m 4.607,-0.01 v -0.02 c 0,-1.224 -0.936,-2.047 -1.924,-2.047 -1.027,0 -1.871,0.761 -1.871,2.047 v 0.021 c 0,1.265 0.854,2.057 1.871,2.057 0.988,-10e-4 1.924,-0.834 1.924,-2.058 z"
           inkscape:connector-curvature="0"
           style="fill:#eb2141;fill-opacity:1" />
        <path
           id="path837"
           d="M 97.068,8.599 V 8.578 c 0,-1.142 0.926,-1.738 2.273,-1.738 0.689,0 1.142,0.093 1.625,0.227 V 6.902 c 0,-0.946 -0.576,-1.44 -1.574,-1.44 -0.627,0 -1.121,0.145 -1.614,0.381 L 97.542,5.195 c 0.586,-0.277 1.151,-0.452 1.934,-0.452 0.751,0 1.327,0.195 1.718,0.586 0.369,0.37 0.555,0.896 0.555,1.563 v 3.25 h -0.781 V 9.35 c -0.371,0.483 -0.977,0.905 -1.913,0.905 -0.999,0 -1.987,-0.556 -1.987,-1.656 z m 3.908,-0.411 V 7.694 c -0.4,-0.113 -0.895,-0.227 -1.553,-0.227 -0.987,0 -1.553,0.422 -1.553,1.069 v 0.021 c 0,0.669 0.627,1.06 1.337,1.06 0.978,0 1.769,-0.576 1.769,-1.429 z"
           inkscape:connector-curvature="0"
           style="fill:#eb2141;fill-opacity:1" />
        <path
           id="path839"
           d="m 103.117,7.498 v -0.02 c 0,-1.728 1.265,-2.766 2.54,-2.766 0.987,0 1.625,0.524 2.036,1.131 V 2.634 h 0.792 v 7.508 h -0.792 v -1.07 c -0.441,0.638 -1.049,1.183 -2.036,1.183 -1.276,0 -2.54,-1.008 -2.54,-2.757 z m 4.607,-0.01 v -0.02 c 0,-1.224 -0.936,-2.047 -1.924,-2.047 -1.027,0 -1.871,0.761 -1.871,2.047 v 0.021 c 0,1.265 0.854,2.057 1.871,2.057 0.989,-10e-4 1.924,-0.834 1.924,-2.058 z"
           inkscape:connector-curvature="0"
           style="fill:#eb2141;fill-opacity:1" />
        <path
           id="path841"
           d="m 113.474,2.942 h 0.762 l 4.535,5.77 v -5.77 h 0.791 v 7.199 h -0.647 l -4.648,-5.903 v 5.903 h -0.792 V 2.942 Z"
           inkscape:connector-curvature="0"
           style="fill:#eb2141;fill-opacity:1" />
        <path
           id="path843"
           d="M 121.066,8.599 V 8.578 c 0,-1.142 0.926,-1.738 2.272,-1.738 0.688,0 1.142,0.093 1.625,0.227 V 6.902 c 0,-0.946 -0.576,-1.44 -1.573,-1.44 -0.628,0 -1.121,0.145 -1.615,0.381 l -0.236,-0.648 c 0.586,-0.277 1.152,-0.452 1.934,-0.452 0.75,0 1.326,0.195 1.717,0.586 0.371,0.37 0.556,0.896 0.556,1.563 v 3.25 h -0.781 V 9.35 c -0.37,0.483 -0.978,0.905 -1.913,0.905 -1,0 -1.986,-0.556 -1.986,-1.656 z m 3.908,-0.411 V 7.694 c -0.402,-0.113 -0.896,-0.227 -1.554,-0.227 -0.987,0 -1.553,0.422 -1.553,1.069 v 0.021 c 0,0.669 0.628,1.06 1.337,1.06 0.977,0 1.77,-0.576 1.77,-1.429 z"
           inkscape:connector-curvature="0"
           style="fill:#eb2141;fill-opacity:1" />
        <path
           id="path845"
           d="M 127.093,7.509 V 7.488 c 0,-1.512 1.162,-2.776 2.725,-2.776 1.008,0 1.625,0.411 2.129,0.945 l -0.523,0.556 c -0.422,-0.442 -0.885,-0.802 -1.615,-0.802 -1.08,0 -1.902,0.904 -1.902,2.057 v 0.021 c 0,1.151 0.843,2.067 1.953,2.067 0.689,0 1.203,-0.34 1.625,-0.792 l 0.504,0.473 c -0.534,0.607 -1.172,1.028 -2.17,1.028 -1.564,0 -2.726,-1.265 -2.726,-2.756 z"
           inkscape:connector-curvature="0"
           style="fill:#eb2141;fill-opacity:1" />
        <path
           id="path847"
           d="m 133.316,2.788 h 0.904 v 0.874 h -0.904 z m 0.051,2.036 h 0.793 v 5.317 h -0.793 z"
           inkscape:connector-curvature="0"
           style="fill:#eb2141;fill-opacity:1" />
        <path
           id="path849"
           d="M 135.671,7.509 V 7.488 c 0,-1.512 1.162,-2.776 2.776,-2.776 1.604,0 2.767,1.254 2.767,2.756 v 0.021 c 0,1.512 -1.183,2.776 -2.787,2.776 -1.594,0 -2.756,-1.254 -2.756,-2.756 z m 4.731,0 V 7.488 c 0,-1.142 -0.854,-2.077 -1.975,-2.077 -1.152,0 -1.943,0.936 -1.943,2.057 v 0.021 c 0,1.142 0.843,2.067 1.964,2.067 1.151,0 1.954,-0.937 1.954,-2.047 z"
           inkscape:connector-curvature="0"
           style="fill:#eb2141;fill-opacity:1" />
        <path
           id="path851"
           d="m 142.645,4.824 h 0.792 V 5.75 c 0.359,-0.576 0.905,-1.038 1.82,-1.038 1.275,0 2.037,0.863 2.037,2.128 v 3.302 h -0.793 V 7.036 c 0,-0.987 -0.523,-1.604 -1.471,-1.604 -0.915,0 -1.594,0.668 -1.594,1.666 v 3.044 h -0.792 V 4.824 Z"
           inkscape:connector-curvature="0"
           style="fill:#eb2141;fill-opacity:1" />
        <path
           id="path853"
           d="M 148.58,8.599 V 8.578 c 0,-1.142 0.926,-1.738 2.273,-1.738 0.689,0 1.142,0.093 1.625,0.227 V 6.902 c 0,-0.946 -0.576,-1.44 -1.574,-1.44 -0.627,0 -1.121,0.145 -1.614,0.381 l -0.236,-0.648 c 0.586,-0.277 1.151,-0.452 1.934,-0.452 0.751,0 1.327,0.195 1.718,0.586 0.369,0.37 0.555,0.896 0.555,1.563 v 3.25 H 152.48 V 9.35 c -0.371,0.483 -0.977,0.905 -1.913,0.905 -0.999,0 -1.987,-0.556 -1.987,-1.656 z m 3.908,-0.411 V 7.694 c -0.4,-0.113 -0.895,-0.227 -1.553,-0.227 -0.987,0 -1.553,0.422 -1.553,1.069 v 0.021 c 0,0.669 0.627,1.06 1.337,1.06 0.978,0 1.769,-0.576 1.769,-1.429 z"
           inkscape:connector-curvature="0"
           style="fill:#eb2141;fill-opacity:1" />
        <path
           id="path855"
           d="m 155.009,2.634 h 0.791 v 7.508 h -0.791 z"
           inkscape:connector-curvature="0"
           style="fill:#eb2141;fill-opacity:1" />
      </g>
      <g
         id="g863"
         enable-background="new    "
         style="fill:#eb2141;fill-opacity:1">
        <path
           id="path859"
           d="m 49.363,20.843 v -0.021 c 0,-1.728 1.265,-2.766 2.54,-2.766 0.987,0 1.625,0.524 2.036,1.131 v -3.209 h 0.792 v 7.508 h -0.792 v -1.069 c -0.442,0.638 -1.049,1.183 -2.036,1.183 -1.275,0 -2.54,-1.008 -2.54,-2.757 z m 4.608,-0.01 v -0.021 c 0,-1.224 -0.936,-2.047 -1.923,-2.047 -1.028,0 -1.872,0.761 -1.872,2.047 v 0.021 c 0,1.265 0.854,2.057 1.872,2.057 0.987,0 1.923,-0.833 1.923,-2.057 z"
           inkscape:connector-curvature="0"
           style="fill:#eb2141;fill-opacity:1" />
        <path
           id="path861"
           d="m 56.974,21.151 c 0.113,1.121 0.936,1.77 1.872,1.77 0.74,0 1.234,-0.299 1.676,-0.751 l 0.494,0.442 c -0.535,0.606 -1.172,0.997 -2.191,0.997 -1.45,0 -2.653,-1.121 -2.653,-2.776 0,-1.543 1.07,-2.776 2.551,-2.776 1.573,0 2.479,1.254 2.479,2.817 0,0.072 0,0.154 -0.01,0.277 z m 3.425,-0.637 c -0.082,-0.956 -0.658,-1.789 -1.697,-1.789 -0.905,0 -1.615,0.761 -1.728,1.789 z"
           inkscape:connector-curvature="0"
           style="fill:#eb2141;fill-opacity:1" />
      </g>
      <g
         id="g881"
         enable-background="new    "
         style="fill:#eb2141;fill-opacity:1">
        <path
           id="path865"
           d="m 65.656,16.287 h 3.291 c 0.916,0 1.615,0.247 2.098,0.73 0.411,0.411 0.617,0.956 0.617,1.646 v 0.021 c 0,1.162 -0.627,1.893 -1.543,2.231 l 1.759,2.571 H 70.027 L 68.484,21.182 H 68.463 67.24 v 2.304 h -1.584 z m 3.188,3.497 c 0.781,0 1.213,-0.401 1.213,-1.019 v -0.021 c 0,-0.688 -0.463,-1.028 -1.245,-1.028 H 67.24 v 2.067 h 1.604 z"
           inkscape:connector-curvature="0"
           style="fill:#eb2141;fill-opacity:1" />
        <path
           id="path867"
           d="m 73,17.974 h 1.563 v 5.513 H 73 Z m 1.265,-2.427 1.348,0.586 -1.316,1.234 h -1.193 z"
           inkscape:connector-curvature="0"
           style="fill:#eb2141;fill-opacity:1" />
        <path
           id="path869"
           d="M 75.767,20.761 V 20.74 c 0,-1.584 1.275,-2.869 2.993,-2.869 1.697,0 2.972,1.255 2.972,2.849 v 0.021 c 0,1.584 -1.275,2.869 -2.993,2.869 -1.697,-10e-4 -2.972,-1.255 -2.972,-2.849 z m 4.422,0 V 20.74 c 0,-0.812 -0.586,-1.521 -1.45,-1.521 -0.895,0 -1.43,0.679 -1.43,1.501 v 0.021 c 0,0.812 0.586,1.522 1.45,1.522 0.895,0 1.43,-0.679 1.43,-1.502 z"
           inkscape:connector-curvature="0"
           style="fill:#eb2141;fill-opacity:1" />
        <path
           id="path871"
           d="m 86.115,16.287 h 1.46 l 3.374,4.433 v -4.433 h 1.562 v 7.199 H 91.163 L 87.677,18.91 v 4.576 h -1.562 z"
           inkscape:connector-curvature="0"
           style="fill:#eb2141;fill-opacity:1" />
        <path
           id="path873"
           d="M 93.808,20.761 V 20.74 c 0,-1.573 1.121,-2.869 2.725,-2.869 1.842,0 2.686,1.43 2.686,2.993 0,0.123 -0.012,0.257 -0.021,0.411 h -3.836 c 0.154,0.709 0.648,1.08 1.348,1.08 0.523,0 0.895,-0.165 1.336,-0.566 l 0.896,0.792 c -0.524,0.648 -1.255,1.028 -2.253,1.028 -1.657,0 -2.881,-1.162 -2.881,-2.848 z m 3.887,-0.463 c -0.092,-0.699 -0.504,-1.172 -1.162,-1.172 -0.658,0 -1.068,0.463 -1.192,1.172 z"
           inkscape:connector-curvature="0"
           style="fill:#eb2141;fill-opacity:1" />
        <path
           id="path875"
           d="m 100.412,24.576 0.535,-1.172 c 0.576,0.318 1.121,0.504 1.861,0.504 1.07,0 1.574,-0.515 1.574,-1.502 v -0.268 c -0.463,0.566 -0.967,0.896 -1.801,0.896 -1.285,0 -2.447,-0.926 -2.447,-2.571 v -0.021 c 0,-1.646 1.183,-2.571 2.447,-2.571 0.854,0 1.357,0.36 1.779,0.822 v -0.72 h 1.563 v 4.269 c 0,0.977 -0.237,1.707 -0.699,2.17 -0.524,0.524 -1.306,0.74 -2.376,0.74 -0.903,0 -1.737,-0.206 -2.436,-0.576 z m 3.97,-4.113 v -0.021 c 0,-0.751 -0.576,-1.275 -1.348,-1.275 -0.762,0 -1.338,0.524 -1.338,1.275 v 0.021 c 0,0.771 0.566,1.275 1.338,1.275 0.772,0 1.348,-0.524 1.348,-1.275 z"
           inkscape:connector-curvature="0"
           style="fill:#eb2141;fill-opacity:1" />
        <path
           id="path877"
           d="m 107.324,17.974 h 1.563 v 1.111 c 0.319,-0.751 0.823,-1.255 1.759,-1.214 v 1.635 h -0.082 c -1.039,0 -1.677,0.617 -1.677,1.944 v 2.036 h -1.563 z"
           inkscape:connector-curvature="0"
           style="fill:#eb2141;fill-opacity:1" />
        <path
           id="path879"
           d="M 111.356,20.761 V 20.74 c 0,-1.584 1.274,-2.869 2.993,-2.869 1.696,0 2.972,1.255 2.972,2.849 v 0.021 c 0,1.584 -1.275,2.869 -2.993,2.869 -1.698,-10e-4 -2.972,-1.255 -2.972,-2.849 z m 4.423,0 V 20.74 c 0,-0.812 -0.587,-1.521 -1.451,-1.521 -0.895,0 -1.43,0.679 -1.43,1.501 v 0.021 c 0,0.812 0.587,1.522 1.451,1.522 0.895,0 1.43,-0.679 1.43,-1.502 z"
           inkscape:connector-curvature="0"
           style="fill:#eb2141;fill-opacity:1" />
      </g>
      <g
         id="g887"
         style="fill:#eb2141;fill-opacity:1">
        <path
           id="path883"
           d="M 5.424,17.298 C 5.232,16.966 5.188,16.659 5.431,16.296 5.559,16.108 5.461,15.774 5.507,15.514 5.569,15.151 5.674,14.792 5.766,14.434 5.78,14.386 5.827,14.348 5.827,14.302 5.854,13.796 6.2,13.377 6.171,12.841 6.15,12.452 6.251,12.043 6.363,11.663 6.682,10.59 6.484,9.488 6.596,8.404 6.631,8.062 6.777,7.731 6.803,7.39 6.865,6.483 6.932,5.578 6.915,4.669 6.906,4.038 6.41,3.729 5.79,3.827 5.017,3.951 4.33,4.259 3.618,4.583 2.888,4.918 2.243,5.365 1.542,5.728 1.037,5.992 0.337,5.878 0,5.499 0.247,5.275 0.479,5.025 0.745,4.828 1.741,4.096 2.733,3.358 3.758,2.665 4.69,2.034 5.646,1.437 6.616,0.867 6.873,0.721 7.208,0.673 7.512,0.661 7.991,0.64 8.475,0.691 8.956,0.721 9.036,0.725 9.165,0.751 9.184,0.8 9.398,1.388 9.992,1.78 9.98,2.492 9.974,2.994 9.94,3.448 9.749,3.927 9.613,4.255 9.693,4.667 9.66,5.038 9.613,5.532 9.54,6.022 9.497,6.515 9.457,6.982 9.504,7.469 9.399,7.923 9.237,8.62 8.974,9.293 8.77,9.983 c -0.025,0.09 0.076,0.213 0.068,0.317 -0.017,0.289 -0.062,0.58 -0.086,0.871 -0.015,0.211 -0.004,0.422 -0.004,0.695 -0.412,0.119 -0.263,0.555 -0.32,0.903 -0.064,0.368 -0.115,0.742 -0.171,1.114 -0.123,0.832 -0.193,1.678 -0.383,2.502 -0.307,1.367 -0.17,2.732 0.03,4.078 0.143,0.955 0.677,1.752 1.627,2.131 0.242,0.098 0.56,0.014 0.845,0.01 0.203,-0.002 0.408,0 0.612,-0.016 0.076,-0.006 0.158,-0.043 0.224,-0.086 1.096,-0.748 1.94,-1.703 2.508,-2.904 0.077,-0.164 0.158,-0.334 0.264,-0.479 0.769,-1.023 1.144,-2.232 1.653,-3.377 0.396,-0.893 0.949,-1.715 1.404,-2.579 0.155,-0.295 0.305,-0.622 0.334,-0.946 0.082,-0.912 0.588,-1.648 0.979,-2.414 0.64,-1.244 0.784,-2.621 1.219,-3.917 C 19.339,5.132 19.908,4.57 20.047,3.903 20.191,3.231 20.349,2.56 20.487,1.886 20.539,1.642 20.68,1.589 20.914,1.547 21.466,1.442 22.012,1.27 22.56,1.141 22.994,1.039 23.432,0.958 23.969,0.847 23.916,1.52 23.872,2.131 23.824,2.744 23.813,2.864 23.782,2.98 23.781,3.099 23.772,3.68 23.779,4.257 23.765,4.833 c -0.021,1.031 -0.272,2.065 0.115,3.081 0.05,0.133 0.028,0.29 0.021,0.432 -0.033,0.793 -0.102,1.589 -0.11,2.384 -0.01,0.667 0.051,1.332 0.081,1.999 0,0.035 0.015,0.071 0.012,0.107 -0.024,0.402 -0.204,0.764 0.015,1.211 0.199,0.4 0.169,0.918 0.229,1.387 0.071,0.564 0.07,1.146 0.21,1.693 0.182,0.701 0.074,1.465 0.558,2.104 0.829,1.102 1.107,2.488 1.86,3.629 0.158,0.24 0.386,0.455 0.627,0.619 0.604,0.408 1.262,0.576 1.993,0.33 0.254,-0.086 0.55,-0.186 0.752,0.186 -0.253,0.34 -0.477,0.707 -0.969,0.826 -0.598,0.145 -1.172,0.408 -1.774,0.5 -0.406,0.062 -0.864,-0.021 -1.268,-0.148 -0.509,-0.154 -0.967,-0.393 -1.355,-0.838 -0.35,-0.396 -0.943,-0.572 -1.417,-0.861 -0.139,-0.09 -0.273,-0.221 -0.336,-0.359 -0.375,-0.906 -0.952,-1.652 -1.606,-2.365 -0.13,-0.143 -0.187,-0.348 -0.273,-0.527 -0.019,-0.029 -0.015,-0.068 -0.025,-0.102 -0.414,-0.918 -0.628,-1.906 -0.976,-2.852 -0.12,-0.324 0.019,-0.744 0.038,-1.117 0.005,-0.078 0.037,-0.16 0.022,-0.234 -0.165,-1.195 -0.337,-2.389 -0.505,-3.584 -0.007,-0.045 -0.012,-0.09 -0.012,-0.09 -0.507,0.763 -1.027,1.542 -1.534,2.33 -0.062,0.101 -0.062,0.229 -0.09,0.347 -0.021,0.078 -0.039,0.211 -0.087,0.224 -0.368,0.099 -0.298,0.381 -0.303,0.642 -0.002,0.102 -0.021,0.221 -0.071,0.309 -0.26,0.478 -0.543,0.943 -0.794,1.421 -0.193,0.362 -0.391,0.729 -0.527,1.112 -0.355,1.002 -0.977,1.851 -1.606,2.672 -0.649,0.843 -1.417,1.597 -2.133,2.386 -0.018,0.019 -0.031,0.039 -0.053,0.051 -1.032,0.547 -1.906,1.438 -3.188,1.431 -0.131,0 -0.266,0.032 -0.388,0.078 C 8.641,25.35 8.439,25.298 8.238,25.111 8.164,25.046 8.016,25.051 7.903,25.035 7.821,25.021 7.732,25.033 7.656,25.005 7.226,24.845 6.786,24.701 6.375,24.499 5.964,24.298 5.64,23.99 5.546,23.507 5.525,23.403 5.505,23.259 5.432,23.21 4.863,22.816 4.956,22.177 4.834,21.626 4.774,21.355 4.789,21.064 4.705,20.8 4.517,20.208 4.571,19.636 4.759,19.056 c 0.016,-0.03 0.015,-0.079 0.035,-0.1 0.361,-0.302 0.188,-0.642 0.104,-0.99 -0.021,-0.092 0.025,-0.229 0.094,-0.304 0.11,-0.135 0.261,-0.224 0.432,-0.364 z"
           inkscape:connector-curvature="0"
           style="fill:#eb2141;fill-opacity:1" />
        <path
           id="path885"
           d="m 34.384,17.236 c -1.921,0 -3.448,-1.508 -3.442,-3.391 0.005,-1.913 1.536,-3.415 3.476,-3.41 1.896,0.003 3.445,1.529 3.45,3.405 0.005,1.894 -1.536,3.396 -3.484,3.396 z"
           inkscape:connector-curvature="0"
           style="fill:#eb2141;fill-opacity:1" />
      </g>
    </g>
    <text
       xml:space="preserve"
       style="font-style:normal;font-variant:normal;font-weight:normal;font-stretch:normal;font-size:9.62866px;line-height:1.25;font-family:Chivo;-inkscape-font-specification:'Chivo, Normal';font-variant-ligatures:normal;font-variant-caps:normal;font-variant-numeric:normal;font-feature-settings:normal;text-align:start;letter-spacing:0px;word-spacing:0px;writing-mode:lr-tb;text-anchor:start;fill:#000000;fill-opacity:1;stroke:none;stroke-width:0.240717"
       x="104.96147"
       y="192.1308"
       id="text936"
       inkscape:export-xdpi="96"
       inkscape:export-ydpi="96"><tspan
         sodipodi:role="line"
         id="tspan942"
         x="104.96147"
         y="192.1308"
         style="text-align:center;text-anchor:middle;stroke-width:0.240717">Introducción a la </tspan><tspan
         sodipodi:role="line"
         x="104.96147"
         y="204.16663"
         style="text-align:center;text-anchor:middle;stroke-width:0.240717"
         id="tspan981">Ingeniería en Computación</tspan><tspan
         sodipodi:role="line"
         id="tspan944"
         x="104.96147"
         y="216.20245"
         style="text-align:center;text-anchor:middle;stroke-width:0.240717">UNRN Sede Andina</tspan><tspan
         sodipodi:role="line"
         x="104.96147"
         y="228.23828"
         style="text-align:center;text-anchor:middle;stroke-width:0.240717"
         id="tspan959">2021</tspan></text>
    <text
       xml:space="preserve"
       style="font-style:normal;font-weight:normal;font-size:10.5833px;line-height:1.25;font-family:sans-serif;letter-spacing:0px;word-spacing:0px;fill:#000000;fill-opacity:1;stroke:none;stroke-width:0.264583"
       x="-172.79643"
       y="133.78273"
       id="text963" />
    <text
       id="text971"
       y="125.78004"
       x="104.80901"
       style="font-style:normal;font-variant:normal;font-weight:normal;font-stretch:normal;font-size:12.3214px;line-height:1.25;font-family:Chivo;-inkscape-font-specification:'Chivo, Normal';font-variant-ligatures:normal;font-variant-caps:normal;font-variant-numeric:normal;font-feature-settings:normal;text-align:start;letter-spacing:0px;word-spacing:0px;writing-mode:lr-tb;text-anchor:start;fill:#000000;fill-opacity:1;stroke:none;stroke-width:0.308037"
       xml:space="preserve"
       inkscape:export-xdpi="96"
       inkscape:export-ydpi="96"><tspan
         id="tspan969"
         style="text-align:center;text-anchor:middle;stroke-width:0.308037"
         y="125.78004"
         x="104.80901"
         sodipodi:role="line">101 Comandos y tips</tspan><tspan
         style="text-align:center;text-anchor:middle;stroke-width:0.308037"
         y="141.18179"
         x="104.80901"
         sodipodi:role="line"
         id="tspan983">para principiantes y expertos</tspan></text>
    <path
       style="fill:#000000;stroke-width:0.102143"
       d="M 51.432738,94.038535 C 50.360559,93.754179 49.76293,93.449373 46.763888,91.657318 43.485939,89.698609 41.293266,88.392387 39.603291,87.391621 38.760619,86.892598 37.519586,86.156998 36.84545,85.756944 36.171307,85.35689 34.930281,84.62226 34.08761,84.124438 33.24493,83.626617 32.279686,83.050386 31.942615,82.843933 31.605543,82.63748 30.640299,82.063079 29.797628,81.567486 26.900094,79.863409 26.349746,79.455546 25.448498,78.344371 24.746785,77.479217 24.143613,76.300234 23.839161,75.19872 L 23.56694,74.213823 V 60.016032 45.818242 l 0.274725,-0.994767 c 0.543763,-1.968963 1.732835,-3.661122 3.351331,-4.76925 0.661314,-0.452777 3.17414,-1.95999 7.813893,-4.686825 0.337065,-0.198102 0.773727,-0.461669 0.970353,-0.585703 0.19662,-0.124034 1.16187,-0.698356 2.144987,-1.276258 0.983124,-0.577904 1.948369,-1.151277 2.144988,-1.274161 0.196626,-0.12289 1.506605,-0.903983 2.911065,-1.735757 1.404454,-0.831782 3.351367,-1.989506 4.326466,-2.572735 0.9751,-0.583228 2.090797,-1.220504 2.479324,-1.416167 1.907897,-0.960802 4.554555,-1.050175 6.602528,-0.222959 0.332274,0.134215 1.335298,0.681068 2.228941,1.215244 0.893643,0.534161 2.54408,1.515635 3.667649,2.181044 2.497711,1.479224 6.045921,3.585578 7.149968,4.244489 3.116136,1.859777 6.149903,3.663214 7.456394,4.432497 0.842672,0.496178 1.853879,1.104531 2.247133,1.35189 2.139508,1.345797 3.539539,3.341178 3.982432,5.675925 0.229723,1.210989 0.232177,28.042648 0.0029,29.254194 -0.335082,1.768899 -1.492118,3.741037 -2.847234,4.853 -0.364619,0.299198 -1.252423,0.896972 -1.972906,1.328395 -1.748775,1.047164 -5.599446,3.336706 -7.183152,4.270979 -0.702226,0.414267 -1.828343,1.082586 -2.502486,1.485166 -0.674137,0.402572 -2.489722,1.480366 -4.034621,2.395095 -1.544906,0.914729 -3.130666,1.856188 -3.523919,2.092128 -5.116502,3.06981 -5.203278,3.10657 -7.50746,3.179842 -1.222313,0.03885 -1.485503,0.01563 -2.317278,-0.205013 z m 2.971978,-1.274572 c 0.16855,-0.06607 0.140793,-0.10425 -0.204289,-0.280825 -0.228538,-0.116943 -0.540919,-0.413145 -0.730353,-0.692523 -0.675786,-0.996664 -0.639345,-0.133651 -0.639345,-15.138642 V 63.039778 l 0.258987,-0.819828 c 0.521824,-1.651869 1.660835,-2.894726 3.928857,-4.287066 1.152073,-0.707262 5.902574,-3.639725 6.690324,-4.129912 0.449427,-0.279661 1.299761,-0.802475 1.889633,-1.161805 0.589872,-0.359338 1.532134,-0.941915 2.093922,-1.294624 0.561782,-0.352702 1.641942,-1.022821 2.400342,-1.489158 1.405597,-0.86428 1.82563,-1.125068 3.626057,-2.251307 0.56178,-0.351421 1.152043,-0.713588 1.311693,-0.804821 0.442559,-0.252908 2.011076,-1.228182 2.43836,-1.516127 0.57862,-0.389924 1.654091,-0.743667 2.260939,-0.743667 0.721727,0 1.521135,0.398006 1.875774,0.933911 0.144896,0.21895 0.281773,0.379765 0.304169,0.357368 0.09124,-0.09124 -0.225795,-1.084248 -0.578762,-1.812705 -0.68227,-1.408071 -1.571072,-2.360189 -3.015765,-3.230582 -0.46646,-0.281036 -4.430752,-2.638286 -11.337805,-6.741707 -1.460641,-0.867753 -3.023412,-1.797482 -3.472839,-2.066071 -3.86628,-2.310592 -6.542802,-3.880702 -7.098895,-4.164385 -1.257408,-0.641436 -3.05418,-0.817122 -4.520734,-0.442046 -1.029855,0.263401 -1.28136,0.394237 -4.8253,2.510323 -0.674136,0.402529 -2.259898,1.345154 -3.523912,2.094719 -1.264007,0.749564 -3.424322,2.035266 -4.800691,2.857098 -2.829681,1.689613 -6.431163,3.828818 -8.477819,5.035646 -2.224469,1.311672 -2.609849,1.583185 -3.341215,2.353974 -0.901682,0.950272 -1.495526,2.104581 -1.768703,3.438018 -0.191026,0.932386 -0.198805,1.49392 -0.198805,14.351008 0,12.800204 0.0085,13.421907 0.196265,14.331767 0.322411,1.56246 0.994905,2.761184 2.162042,3.853834 0.313049,0.293075 1.430308,1.037467 2.592917,1.72758 1.123569,0.666943 2.663366,1.580833 3.421773,2.030874 0.758408,0.450042 1.930489,1.147376 2.604632,1.549631 0.674135,0.402254 2.259904,1.344024 3.523911,2.092822 1.264008,0.748799 2.849775,1.691017 3.523912,2.093814 7.706922,4.604861 8.027213,4.781914 9.0396,4.996933 0.721301,0.153189 2.07838,0.193306 2.391123,0.07069 z M 61.724008,82.688154 C 62.60137,82.243562 62.6364,82.177829 62.6364,80.976485 v -1.051222 l 0.466793,-0.455376 c 0.550478,-0.537011 1.276135,-1.594414 1.57953,-2.301626 0.301166,-0.702032 0.608042,-2.039775 0.607455,-2.648012 -3.1e-4,-0.280891 -0.0623,-0.742655 -0.13776,-1.026135 -0.385243,-1.44659 -0.924635,-1.799645 -3.028652,-1.9824 -1.367266,-0.118766 -1.568871,-0.251512 -1.611897,-1.061354 -0.02142,-0.40334 0.02909,-0.71117 0.168304,-1.025926 0.40004,-0.904345 1.821867,-1.682065 2.861252,-1.565057 0.613425,0.06903 0.757395,-0.108042 1.039675,-1.278973 0.317417,-1.31665 0.301962,-1.343047 -0.7462,-1.274434 -0.462546,0.03025 -0.944419,0.08734 -1.070819,0.126783 -0.227409,0.07099 -0.229818,0.06136 -0.229818,-0.913752 0,-0.758856 -0.0335,-0.998313 -0.145605,-1.041339 -0.154252,-0.05919 -1.247177,0.581225 -1.463145,0.857362 -0.08295,0.106059 -0.127674,0.524855 -0.127674,1.195489 v 1.032242 l -0.418181,0.403767 c -2.102598,2.030122 -2.78452,5.387929 -1.370645,6.74911 0.498451,0.479868 0.902572,0.601927 2.34382,0.707907 1.059631,0.07791 1.34626,0.183767 1.546584,0.571167 0.392131,0.758305 0.02287,2.062256 -0.792605,2.798999 -0.662377,0.598418 -1.219217,0.799827 -2.260519,0.817614 -0.619691,0.01056 -0.943991,0.05992 -1.040021,0.158216 -0.153594,0.157219 -0.561991,1.660133 -0.561991,2.068141 0,0.255267 0.04465,0.284877 0.62074,0.411993 0.248611,0.05485 1.030565,-0.03719 1.651928,-0.194441 l 0.28089,-0.07106 v 0.662233 c 0,0.85925 0.09215,1.300622 0.27152,1.300622 0.07911,0 0.373701,-0.11648 0.654649,-0.258842 z m 6.683435,-2.294716 c 0.03473,-0.05615 0.01715,-0.102144 -0.03901,-0.102144 -0.05615,0 -0.130553,0.04595 -0.165273,0.102144 -0.03473,0.05615 -0.01714,0.102143 0.03901,0.102143 0.05615,0 0.130553,-0.04595 0.165265,-0.102143 z m 1.898541,-1.359814 c -0.07996,-0.07995 -0.146784,-0.07504 -0.238726,0.01759 -0.102421,0.10318 -0.08901,0.113889 0.0678,0.05412 0.146971,-0.05601 0.174751,-0.04088 0.111898,0.06078 -0.05774,0.0934 -0.04436,0.111017 0.0432,0.05687 0.09131,-0.05644 0.09574,-0.10946 0.01577,-0.189427 z m 0.808235,-0.283589 c 0.169607,-0.138732 0.186764,-0.173421 0.05109,-0.103296 -0.333165,0.17219 -0.517865,0.313627 -0.408571,0.312867 0.05615,-3.84e-4 0.217053,-0.0947 0.357499,-0.209571 z m -2.704069,-0.07329 c -0.03148,-0.03148 -0.113868,-7.2e-5 -0.183154,0.06976 -0.100123,0.100882 -0.08839,0.112615 0.05717,0.05717 0.100738,-0.03835 0.157427,-0.09548 0.125979,-0.126914 z m 3.779265,-0.612861 c -0.03148,-0.03148 -0.113866,-6.5e-5 -0.183152,0.06976 -0.100123,0.100883 -0.08839,0.112616 0.05717,0.05717 0.100739,-0.03835 0.157421,-0.09548 0.125973,-0.126921 z m 0.405873,-0.224008 c 0.101682,-0.112362 0.133398,-0.204282 0.07048,-0.204282 -0.06288,0 -0.163578,0.09192 -0.223711,0.204282 -0.06013,0.112355 -0.09186,0.204283 -0.07048,0.204283 0.02135,0 0.12203,-0.09193 0.223711,-0.204283 z M 70.52243,77.590711 c 0.0971,0.05499 0.102817,0.04291 0.02156,-0.04566 -0.12213,-0.133043 -0.451184,-0.04993 -0.451184,0.113939 0,0.06115 0.061,0.05312 0.148738,-0.01975 0.08181,-0.06787 0.208203,-0.08976 0.28089,-0.04856 z m 3.093552,-0.362521 c 0.03582,-0.05789 -0.005,-0.07501 -0.09611,-0.04016 -0.176959,0.06787 -0.209333,0.141119 -0.06238,0.141119 0.05282,0 0.124193,-0.04545 0.158513,-0.100985 z m -1.735693,-0.552215 c 0.112355,-0.0866 0.15832,-0.157262 0.102134,-0.157023 -0.05615,2.02e-4 -0.240028,0.11776 -0.408564,0.261172 -0.312599,0.266013 -0.0644,0.18164 0.306426,-0.104149 z m 1.991778,-0.468189 v -0.814944 l -0.28089,0.124294 c -0.154498,0.06838 -0.34163,0.182292 -0.415873,0.253163 -0.07423,0.07084 -0.185309,0.128875 -0.246845,0.128875 -0.06151,0 -0.08365,0.02822 -0.04913,0.06274 0.03452,0.03452 0.219955,-0.03445 0.412118,-0.153217 0.192161,-0.118758 0.37844,-0.215932 0.41394,-0.215932 0.03553,0 0.06454,0.321746 0.06454,0.714991 0,0.393253 0.02294,0.715006 0.05109,0.715006 0.02808,0 0.05109,-0.366733 0.05109,-0.814958 z M 115.0026,83.21073 c -0.7027,-0.256613 -0.98857,-0.829408 -0.98857,-1.980807 0,-1.381501 0.59962,-2.131919 1.6204,-2.02793 0.95567,0.09735 1.3414,0.689635 1.3414,2.059652 0,0.673558 -0.0478,1.012901 -0.17859,1.269522 -0.34142,0.669563 -1.06827,0.944802 -1.79464,0.679563 z m 0.85564,-0.471048 c 0.34911,-0.186828 0.50508,-0.649975 0.50468,-1.4985 0,-0.911762 -0.21872,-1.409157 -0.66791,-1.521895 -0.65024,-0.163195 -1.06813,0.420244 -1.06813,1.491286 0,1.209498 0.55072,1.893381 1.23136,1.529109 z m 3.51263,0.509942 c -0.17162,-0.05159 -0.42444,-0.213357 -0.56178,-0.359395 -0.24075,-0.255984 -0.2509,-0.325849 -0.28214,-1.942941 l -0.0324,-1.67742 h 0.3133 0.31329 v 1.536779 c 0,1.513632 0.004,1.540731 0.26213,1.798907 0.44734,0.447335 1.14598,0.169947 1.18298,-0.469681 0.008,-0.143758 0.0245,-0.330319 0.036,-0.414584 0.0115,-0.08427 0.0276,-0.670308 0.036,-1.302316 l 0.0151,-1.149105 h 0.30642 0.30643 v 1.485135 c 0,1.293481 -0.027,1.537865 -0.20846,1.89375 -0.2783,0.545522 -1.00739,0.80524 -1.6868,0.600871 z m 26.19919,0.01295 c -0.83113,-0.264523 -1.11839,-0.79448 -1.11591,-2.058726 0.001,-0.701973 0.0442,-0.937154 0.23135,-1.270065 0.633,-1.12603 2.31269,-0.981677 2.67427,0.229819 0.0615,0.206228 0.0334,0.229826 -0.27341,0.229826 -0.28502,0 -0.36097,-0.05029 -0.45591,-0.301818 -0.223,-0.590791 -1.07101,-0.530464 -1.38623,0.09863 -0.2257,0.450418 -0.23601,1.486338 -0.0202,2.025809 0.36007,0.89991 1.57768,0.828909 1.57768,-0.09199 0,-0.401813 -0.001,-0.402783 -0.40857,-0.402783 -0.36772,0 -0.40858,-0.02554 -0.40858,-0.255354 0,-0.248061 0.0204,-0.255355 0.715,-0.255355 h 0.715 v 0.808808 c 0,0.802634 -0.003,0.810362 -0.33197,1.012459 -0.3851,0.236244 -1.13555,0.350733 -1.51255,0.230745 z m 21.50693,-0.06056 c -0.48642,-0.172089 -0.8682,-0.5787 -0.8682,-0.924679 0,-0.204926 0.0509,-0.249659 0.28403,-0.249659 0.22159,0 0.30938,0.06715 0.39933,0.305442 0.19329,0.51212 1.02954,0.688044 1.44236,0.303439 0.46134,-0.429795 0.22913,-0.828808 -0.65316,-1.12242 -0.90535,-0.301282 -1.37043,-0.712162 -1.37043,-1.210736 0,-0.501113 0.21276,-0.776612 0.76162,-0.986221 0.65612,-0.250571 1.31656,-0.134598 1.76024,0.309105 0.31152,0.311514 0.44486,0.654396 0.26152,0.672566 -0.0421,0.0043 -0.18002,0.02684 -0.30643,0.05043 -0.1264,0.0236 -0.22981,-0.005 -0.22981,-0.06331 0,-0.250571 -0.50742,-0.607572 -0.86357,-0.607572 -0.36837,0 -0.77071,0.281406 -0.77071,0.539053 0,0.268272 0.30632,0.552129 0.73353,0.679773 1.08958,0.325524 1.5136,0.707104 1.5136,1.362101 0,0.478349 -0.31181,0.827121 -0.8807,0.985084 -0.50963,0.141502 -0.71354,0.134376 -1.21322,-0.0424 z m -73.616715,-1.710586 -0.02793,-1.761959 -0.63839,0.0014 c -0.595052,7.24e-4 -0.638389,-0.01468 -0.638389,-0.229818 0,-0.23005 0.0057,-0.230824 1.63427,-0.230824 1.552873,0 1.634286,0.0099 1.634286,0.199419 0,0.173268 -0.08369,0.203392 -0.638397,0.229819 l -0.638382,0.03039 -0.02793,1.76196 -0.02793,1.761959 h -0.301607 -0.3016 z m 3.291683,-0.229817 v -1.991778 h 0.306427 0.306427 v 0.817142 0.817136 h 0.76607 0.766058 v -0.817136 -0.817142 h 0.30643 0.30643 v 1.991778 1.991777 h -0.30643 -0.30643 v -0.91928 -0.919288 h -0.766058 -0.76607 v 0.919288 0.91928 h -0.306427 -0.306427 z m 4.392122,0 v -1.991778 h 1.38603 c 1.37101,0 1.38566,0.0022 1.35338,0.22536 -0.0315,0.21712 -0.0691,0.224298 -1.02852,0.195982 l -0.99589,-0.02938 v 0.621159 0.621161 h 0.86821 c 0.85799,0 0.86821,0.0029 0.86821,0.255355 0,0.25246 -0.0103,0.255354 -0.87287,0.255354 h -0.87288 l 0.0301,0.678369 0.0301,0.678355 0.99588,-0.02041 0.9959,-0.02041 v 0.261347 0.261338 h -1.37893 -1.37892 z m 8.68211,0 v -1.991778 l 0.99588,3.83e-4 c 1.11017,3.91e-4 1.57731,0.177871 1.76451,0.670243 0.15474,0.406994 0.12248,0.547909 -0.19899,0.869366 l -0.29856,0.298575 0.29856,0.298569 c 0.39038,0.390365 0.42424,1.083503 0.0687,1.407282 -0.40916,0.372659 -0.65941,0.439137 -1.65311,0.439137 h -0.97706 V 81.26161 Z m 2.04285,1.276779 c 0.11235,-0.112362 0.20428,-0.319199 0.20428,-0.459645 0,-0.449476 -0.32993,-0.663925 -1.02143,-0.663925 h -0.61285 v 0.663925 0.663927 h 0.61285 c 0.47668,0 0.65825,-0.04538 0.81715,-0.204282 z m -0.0895,-1.798958 c 0.23112,-0.209152 0.24857,-0.580928 0.0372,-0.792301 -0.17113,-0.171127 -0.98156,-0.325017 -1.22324,-0.232278 -0.11178,0.0429 -0.15447,0.213479 -0.15447,0.617165 0,0.496034 0.0254,0.563279 0.22982,0.606559 0.37873,0.08021 0.9066,-0.0144 1.11069,-0.199145 z m 11.12086,0.522179 v -1.991778 h 0.91263 c 0.99815,0 1.31235,0.07942 1.61977,0.409389 0.44199,0.474412 0.32826,1.290571 -0.23724,1.702507 l -0.28361,0.206598 0.42422,0.768495 c 0.23333,0.422674 0.42421,0.797315 0.42421,0.832527 0,0.03523 -0.15167,0.06404 -0.33704,0.06404 -0.32017,0 -0.3571,-0.0411 -0.73779,-0.821948 -0.39688,-0.814024 -0.40422,-0.821658 -0.761,-0.791607 l -0.36023,0.03032 -0.0298,0.7916 -0.0298,0.791607 h -0.30214 -0.30213 z m 1.95975,-0.355654 c 0.23387,-0.288837 0.23631,-0.63122 0.006,-0.914672 -0.13093,-0.161487 -0.33585,-0.236641 -0.76606,-0.280963 l -0.58733,-0.06049 v 0.712262 c 0,0.391741 0.0345,0.747344 0.0766,0.790218 0.0422,0.04292 0.3035,0.05644 0.58083,0.03018 0.36085,-0.03416 0.55688,-0.112804 0.68945,-0.276527 z m 2.22809,0.355654 v -1.991778 h 0.38934 0.38936 l 0.64795,1.328994 c 0.35638,0.730947 0.66652,1.310435 0.6892,1.28775 0.0227,-0.02272 0.0391,-0.620733 0.0364,-1.328995 l -0.005,-1.287749 h 0.35629 0.3563 v 1.991778 1.991777 h -0.33998 c -0.33444,0 -0.35147,-0.02287 -1.04696,-1.40446 l -0.70698,-1.40446 -0.0284,1.40446 -0.0284,1.40446 h -0.35462 -0.35462 z m 4.49426,0 v -1.991778 h 1.32786 c 1.30897,0 1.32784,0.0029 1.32771,0.229818 0,0.222611 -0.0314,0.229818 -0.99589,0.229818 -0.54767,0 -0.98426,0.03452 -0.97022,0.07661 0.014,0.04211 0.0254,0.317925 0.0254,0.612854 v 0.536253 h 0.84284 c 0.79629,0 0.84463,0.01266 0.87548,0.229817 0.0316,0.222691 0.006,0.229819 -0.82566,0.229819 -0.47207,0 -0.87744,0.01903 -0.90084,0.04226 -0.0234,0.02323 -0.0271,0.320385 -0.008,0.660337 l 0.0345,0.618107 0.987,0.02916 c 0.93556,0.02757 0.98871,0.0411 1.01963,0.258944 0.0325,0.228645 0.0255,0.229818 -1.35338,0.229818 H 131.5829 V 81.26167 Z m 8.53381,1.557669 c 0.076,-0.238755 0.3772,-1.135054 0.6694,-1.991777 l 0.53127,-1.55767 h 0.32578 c 0.31875,0 0.33147,0.01823 0.58842,0.842671 0.14444,0.463473 0.39801,1.233371 0.5635,1.710887 0.16548,0.477517 0.33203,0.997648 0.3701,1.155843 0.066,0.27406 0.0537,0.286115 -0.25778,0.255362 -0.28495,-0.02815 -0.34163,-0.08483 -0.44068,-0.440852 l -0.11368,-0.408572 -0.735,-0.02995 -0.73501,-0.02995 -0.11685,0.464065 c -0.10896,0.432703 -0.13952,0.464065 -0.45223,0.464065 h -0.33538 z m 1.98686,-1.129207 c 0,-0.287222 -0.4903,-1.545614 -0.54502,-1.398816 -0.12178,0.326768 -0.37426,1.269522 -0.37426,1.397464 0,0.09151 0.14728,0.13467 0.45964,0.13467 0.30999,0 0.45964,-0.04342 0.45964,-0.133318 z m 6.63802,1.435634 c -10e-4,-0.07019 0.28659,-0.966221 0.63837,-1.991105 l 0.63965,-1.863431 0.31282,-7.24e-4 0.31282,-7.23e-4 0.63325,1.91517 c 0.34831,1.053342 0.63271,1.949641 0.63201,1.991777 -0.001,0.04211 -0.12966,0.07661 -0.28658,0.07661 -0.24276,0 -0.30894,-0.06477 -0.44361,-0.434108 l -0.15828,-0.434106 h -0.70549 -0.70552 l -0.13738,0.434106 c -0.1201,0.37957 -0.17464,0.434108 -0.43409,0.434108 -0.16864,0 -0.29727,-0.05514 -0.29797,-0.127681 z m 2.04408,-1.414273 c 0,-0.106884 -0.26114,-1.098055 -0.37418,-1.420177 -0.0306,-0.08731 -0.1765,0.176316 -0.33911,0.612854 -0.15695,0.421336 -0.26477,0.800536 -0.23963,0.842672 0.0731,0.122507 0.95292,0.08987 0.95292,-0.03539 z m 2.55356,1.286592 c 0,-0.234767 0.0372,-0.255354 0.46237,-0.255354 h 0.46238 l -0.0283,-1.506598 -0.0282,-1.506605 -0.25536,-0.01548 c -0.14044,-0.0085 -0.33579,-0.01998 -0.43411,-0.02554 -0.10729,-0.0057 -0.17874,-0.09171 -0.17874,-0.21434 0,-0.19345 0.0681,-0.20429 1.28389,-0.20429 1.27301,0 1.28361,0.0022 1.25124,0.229819 -0.0272,0.191048 -0.10588,0.235122 -0.46674,0.261231 l -0.43411,0.03141 v 1.475193 1.475186 h 0.45963 c 0.42219,0 0.45965,0.02084 0.45965,0.255361 v 0.255356 h -1.27678 -1.27678 z m 4.18784,-1.742581 v -1.997943 l 0.37571,0.0317 c 0.37201,0.03141 0.38225,0.04472 1.04695,1.359554 l 0.67126,1.327851 0.0285,-1.353388 0.0285,-1.353387 h 0.30345 0.30346 v 1.991777 1.991778 h -0.30571 c -0.29026,0 -0.34162,-0.07099 -1.01607,-1.404453 l -0.71036,-1.40446 -0.005,1.40446 -0.005,1.404453 h -0.35749 -0.3575 v -1.997944 z m 13.07422,0.0066 v -1.99177 h 0.30643 0.30643 v 0.80875 0.808763 l 0.72394,0.03394 c 0.39817,0.01867 0.7429,0.01477 0.76607,-0.0087 0.0232,-0.02337 0.0421,-0.402609 0.0421,-0.842672 V 79.27024 h 0.30643 0.30643 v 1.991777 1.991778 h -0.30643 -0.30643 v -0.91928 -0.91928 h -0.76607 -0.76607 v 0.91928 0.91928 h -0.30643 -0.30642 v -1.991778 z m 4.39213,0 v -1.99177 h 1.37892 c 1.36187,0 1.37892,0.0029 1.37903,0.229819 9e-5,0.225353 -0.0198,0.229137 -1.02143,0.194708 l -1.02153,-0.03509 v 0.622426 0.622427 h 0.86821 c 0.858,0 0.86821,0.0029 0.86821,0.255355 0,0.252351 -0.0103,0.255354 -0.86821,0.255354 h -0.86821 v 0.663926 0.663926 h 1.02143 1.02142 v 0.255354 0.255355 h -1.37892 -1.37892 z m 4.39212,0 v -1.99177 h 0.30643 c 0.22193,0 0.30774,0.04928 0.31116,0.178747 0.003,0.09831 10e-4,0.87807 -0.004,1.732797 l -0.009,1.554045 1.05143,0.02916 c 1.00238,0.02779 1.05294,0.03987 1.08406,0.25898 0.0325,0.228646 0.0255,0.229826 -1.35338,0.229826 h -1.38603 v -1.991778 z m 4.39212,0 v -1.99177 h 0.30643 0.30643 v 1.736416 1.736424 h 1.02141 1.02143 v 0.255354 0.255354 h -1.32785 -1.32785 z m -47.59835,0.20429 v -0.255361 h 1.17464 1.17463 v 0.255361 0.255355 h -1.17463 -1.17464 z m 14.5042,-6.243505 c -2.88007,-0.266643 -5.58721,-1.384792 -7.47891,-3.089081 -0.69132,-0.622817 -1.53783,-1.755757 -1.99458,-2.669436 -0.4743,-0.948776 -0.6741,-1.626978 -0.84322,-2.862129 -0.0931,-0.680149 -0.0858,-0.855884 0.0463,-1.111535 0.3125,-0.604294 0.39647,-0.622543 2.86217,-0.621985 2.76464,7.23e-4 2.71389,-0.02164 3.02792,1.327019 0.56732,2.436362 2.35477,3.876612 5.02886,4.051994 3.47848,0.22814 5.94464,-1.742987 5.23496,-4.184133 -0.22249,-0.765361 -0.69329,-1.357722 -1.51836,-1.910385 -0.79802,-0.534546 -1.62698,-0.871538 -4.36525,-1.774551 -3.20678,-1.057511 -4.90519,-1.875356 -6.41741,-3.090245 -2.19378,-1.762416 -3.18647,-3.828515 -3.05195,-6.352059 0.0943,-1.769195 0.57429,-3.010104 1.71333,-4.429363 1.34512,-1.676059 3.64658,-2.987318 6.17282,-3.516994 1.36191,-0.28555 4.15426,-0.264399 5.38514,0.04081 4.5744,1.134207 7.64559,4.265372 8.05381,8.211112 0.11581,1.11935 -0.003,1.494274 -0.5584,1.757682 -0.32317,0.153355 -0.65315,0.172429 -2.5133,0.145279 l -2.1413,-0.03126 -0.29252,-0.306427 c -0.21685,-0.227161 -0.34788,-0.53827 -0.5065,-1.202602 -0.26884,-1.125928 -0.55335,-1.702051 -1.18011,-2.389682 -0.58017,-0.636538 -1.63719,-1.201705 -2.56969,-1.373976 -0.78758,-0.145503 -2.19087,-0.0487 -2.91728,0.201207 -0.90747,0.312209 -1.34701,0.57611 -1.84329,1.106667 -0.64297,0.687378 -0.83781,1.242372 -0.7918,2.255301 0.0353,0.774957 0.0548,0.830747 0.48801,1.392304 0.63034,0.817034 1.70162,1.429815 3.58685,2.051714 3.15212,1.039812 4.47758,1.524789 5.46106,1.998189 3.17018,1.525962 5.19019,3.721949 5.72726,6.22618 0.16577,0.772951 0.19042,2.597489 0.0454,3.361989 -0.0553,0.29144 -0.2634,0.900423 -0.46253,1.3533 -1.13194,2.574515 -3.86554,4.513425 -7.32957,5.19877 -0.97948,0.193783 -3.1514,0.320277 -4.05807,0.236331 z M 92.640698,74.770777 c -0.505571,-0.302932 -0.48518,0.317295 -0.48518,-14.754384 0,-12.558171 0.017,-14.087671 0.159997,-14.364126 0.303634,-0.587166 0.417892,-0.600075 5.275806,-0.596297 4.893849,0.0036 5.940439,0.06607 7.684219,0.457169 2.85724,0.640835 4.98267,2.027458 6.17809,4.030604 0.45761,0.766801 0.67945,1.378822 0.88369,2.437919 0.37487,1.94394 -0.0333,3.840708 -1.15903,5.385816 -0.5226,0.717285 -0.68894,0.887716 -1.37767,1.411501 -0.21067,0.160221 -0.38304,0.324177 -0.38304,0.364351 0,0.04016 0.25198,0.246585 0.55997,0.458696 0.73845,0.508596 1.78616,1.62909 2.21788,2.371969 1.05187,1.809985 1.32654,4.069136 0.75518,6.211006 -0.81545,3.056886 -3.35305,5.286593 -7.18616,6.314278 l -1.19863,0.321369 -5.87319,0.02858 c -3.964804,0.01932 -5.93127,-0.0066 -6.051932,-0.07849 z m 11.210122,-5.051972 c 1.50096,-0.316535 2.61501,-1.111963 3.18606,-2.274867 0.25667,-0.522664 0.28664,-0.691294 0.28543,-1.605429 -0.001,-0.883171 -0.037,-1.097469 -0.26499,-1.583206 -0.51019,-1.087143 -1.65257,-1.905733 -3.06739,-2.197955 -0.58305,-0.120423 -1.33704,-0.149129 -3.35659,-0.127783 l -2.604634,0.02749 -0.02677,3.95802 -0.02677,3.958011 2.580294,-0.0022 c 1.87821,-0.0014 2.77484,-0.04276 3.29529,-0.152558 z m -0.30639,-12.961243 c 1.34792,-0.372174 2.40736,-1.13645 2.81249,-2.028934 0.22062,-0.485998 0.27122,-1.70646 0.0968,-2.334422 -0.1551,-0.558365 -0.83546,-1.26214 -1.56953,-1.623511 -0.97016,-0.477604 -1.91945,-0.603446 -4.58279,-0.607528 l -2.323746,-0.0036 v 3.353677 c 0,1.844522 0.03444,3.388994 0.07661,3.432149 0.04211,0.04313 1.156766,0.05658 2.476956,0.02988 1.79748,-0.03639 2.55427,-0.09106 3.0132,-0.217769 z m 11.75823,17.849144 c -0.53271,-0.532714 -0.82352,0.488914 3.41174,-11.985732 0.73432,-2.162867 1.65222,-4.874745 2.03977,-6.026405 0.61371,-1.823625 3.02767,-8.922571 3.52541,-10.367452 0.40429,-1.173542 0.46024,-1.196517 2.8142,-1.155466 l 1.82962,0.03191 0.3003,0.306426 c 0.25578,0.261006 0.70442,1.525354 3.02633,8.528892 1.49932,4.522355 2.85486,8.590174 3.01234,9.039601 0.38566,1.100667 0.88312,2.591678 1.1757,3.523911 0.13224,0.421336 0.72557,2.204063 1.31849,3.961623 0.59294,1.757545 1.07807,3.335354 1.07807,3.506233 0,0.207191 -0.0995,0.410134 -0.29858,0.60925 l -0.29858,0.298568 h -2.28694 -2.28694 l -0.26319,-0.28089 c -0.28296,-0.302005 -0.39688,-0.601948 -1.21254,-3.191949 -0.29191,-0.926943 -0.67962,-2.122013 -0.8616,-2.655703 l -0.33085,-0.970353 -4.09132,-0.0267 -4.09132,-0.0267 -0.066,0.230968 c -0.0363,0.127038 -0.5246,1.642948 -1.08514,3.368684 -0.83755,2.578595 -1.06616,3.174683 -1.2829,3.345165 -0.24711,0.194376 -0.40684,0.207452 -2.53423,0.207452 h -2.27051 z m 14.03273,-12.096227 c 0,-0.06079 -0.15712,-0.577874 -0.34914,-1.149106 -0.19203,-0.571231 -0.58629,-1.79701 -0.87613,-2.723954 -0.72218,-2.309522 -1.05442,-3.303226 -1.14006,-3.409849 -0.0399,-0.04964 -0.15088,0.180193 -0.24673,0.510709 -0.0959,0.330516 -0.46269,1.479434 -0.81523,2.553154 -0.35254,1.073712 -0.78695,2.425233 -0.96536,3.003376 -0.1784,0.578135 -0.34812,1.113026 -0.37714,1.188657 -0.0433,0.112855 0.37956,0.137508 2.35851,0.137508 1.66094,0 2.41128,-0.03437 2.41128,-0.110495 z m 36.35483,12.069005 -0.29857,-0.298569 V 60.046923 c 0,-15.823046 -0.0587,-14.545875 0.68287,-14.855725 0.49321,-0.206077 3.93251,-0.186973 4.34069,0.0241 0.54895,0.283871 0.53938,0.18368 0.59427,6.22107 l 0.0511,5.617834 h 4.85177 4.85177 l 0.0511,-5.683791 c 0.0486,-5.41484 0.0603,-5.694009 0.24646,-5.899607 0.33286,-0.367688 0.81461,-0.435302 2.85196,-0.400308 l 1.92377,0.03307 0.29782,0.333577 0.29783,0.333569 v 14.255105 14.255107 l -0.29857,0.298576 -0.29858,0.298568 -2.17837,-0.0022 c -2.34617,-0.0022 -2.44435,-0.02323 -2.72822,-0.578329 -0.0802,-0.156814 -0.1141,-2.000006 -0.1141,-6.203198 v -5.980094 l -4.86033,-0.0275 c -2.67317,-0.01512 -4.87945,-0.0083 -4.90283,0.01505 -0.0234,0.02337 -0.0424,2.70229 -0.0424,5.953075 0,6.301702 -0.0112,6.453776 -0.49535,6.712872 -0.12907,0.0691 -1.01416,0.110365 -2.36578,0.110365 h -2.15956 L 165.6904,74.57954 Z"
       id="path999"
       inkscape:export-xdpi="96"
       inkscape:export-ydpi="96" />
  </g>
</svg>
