<?xml version="1.0" encoding="UTF-8" standalone="no"?>
<!-- Created with Inkscape (http://www.inkscape.org/) -->

<svg
   width="297mm"
   height="210mm"
   viewBox="0 0 297 210"
   version="1.1"
   id="svg5"
   inkscape:version="1.1.1 (3bf5ae0d25, 2021-09-20)"
   sodipodi:docname="consola.svg"
   xmlns:inkscape="http://www.inkscape.org/namespaces/inkscape"
   xmlns:sodipodi="http://sodipodi.sourceforge.net/DTD/sodipodi-0.dtd"
   xmlns="http://www.w3.org/2000/svg"
   xmlns:svg="http://www.w3.org/2000/svg">
  <sodipodi:namedview
     id="namedview7"
     pagecolor="#ffffff"
     bordercolor="#666666"
     borderopacity="1.0"
     inkscape:pageshadow="2"
     inkscape:pageopacity="0.0"
     inkscape:pagecheckerboard="0"
     inkscape:document-units="mm"
     showgrid="false"
     inkscape:zoom="0.3535534"
     inkscape:cx="620.83974"
     inkscape:cy="844.28547"
     inkscape:window-width="1862"
     inkscape:window-height="1016"
     inkscape:window-x="58"
     inkscape:window-y="27"
     inkscape:window-maximized="1"
     inkscape:current-layer="layer1" />
  <defs
     id="defs2" />
  <g
     inkscape:label="Capa 1"
     inkscape:groupmode="layer"
     id="layer1">
    <g
       id="g11745"
       transform="translate(-150.68692,-25.404059)">
      <path
         id="path10884"
         style="fill:#a0892c;stroke-width:2.2394;stroke-linecap:round;stop-color:#000000"
         d="m 198.51226,46.573034 c -2.29212,0 -4.13721,1.845601 -4.13721,4.137732 v 8.473384 6.496243 8.473903 c 0,2.29213 1.84509,4.137215 4.13721,4.137215 h 31.27148 c 2.29212,0 4.13721,-1.845085 4.13721,-4.137215 v -8.473903 h 5.74747 l 4.34493,-3.247864 -4.34493,-3.248379 h -5.74747 v -8.473384 c 0,-2.292131 -1.84509,-4.137732 -4.13721,-4.137732 z m 41.71737,14.279748 v 0.661458 h 0.47077 v 0.252182 h -0.47077 v 1.546157 c 0,0.128471 0.0286,0.223395 0.0904,0.285255 0.0571,0.0619 0.15224,0.09043 0.27593,0.09043 h 0.0667 v 0.285769 h -0.0811 c -0.45199,0 -0.6754,-0.214514 -0.6754,-0.647504 v -1.560111 h -0.31419 V 61.51424 h 0.31419 v -0.514181 z m -3.683,0.623218 c 0.22838,0 0.40484,0.0714 0.53332,0.204639 0.12845,0.13798 0.19481,0.347038 0.19481,0.632518 v 0.861447 c 0,0.285469 -0.0663,0.4993 -0.19481,0.632521 -0.12848,0.137988 -0.30494,0.204636 -0.53332,0.204636 -0.23789,0 -0.41826,-0.0662 -0.54674,-0.199469 -0.13322,-0.133221 -0.19534,-0.347459 -0.19531,-0.637688 v -0.861447 c 0,-0.28548 0.0621,-0.4993 0.19531,-0.632518 0.12848,-0.13322 0.30885,-0.204639 0.54674,-0.204639 z m 1.24695,0.03824 h 0.32351 v 1.484146 c 0,0.261681 0.0236,0.447135 0.076,0.556556 0.0523,0.1142 0.15719,0.166915 0.31419,0.166915 0.10467,0 0.18061,-0.02371 0.2377,-0.07131 0.0523,-0.0476 0.0905,-0.119089 0.10957,-0.223758 0.019,-0.0999 0.0331,-0.24284 0.0331,-0.4284 V 61.51424 h 0.32351 v 1.703255 c 0,0.266441 -0.0615,0.466228 -0.17571,0.599448 -0.1142,0.133228 -0.29488,0.194818 -0.53279,0.194818 -0.24265,0 -0.42376,-0.0616 -0.53796,-0.194818 -0.11419,-0.13322 -0.17105,-0.333007 -0.17105,-0.599448 z m -1.25158,0.252182 c -0.13322,0 -0.23768,0.0472 -0.30904,0.132808 -0.0714,0.0904 -0.1049,0.242819 -0.1049,0.452168 v 0.784965 c 0,0.214109 0.0335,0.36653 0.1049,0.452168 0.0714,0.0904 0.17582,0.133326 0.30904,0.133326 0.13321,0 0.23299,-0.04289 0.30435,-0.133326 0.0666,-0.0904 0.1049,-0.242819 0.1049,-0.452168 v -0.784965 c 0,-0.209349 -0.0383,-0.356601 -0.1049,-0.447001 -0.0714,-0.0904 -0.17114,-0.137975 -0.30435,-0.137975 z" />
      <path
         fill-rule="evenodd"
         d="m 207.07892,53.205781 a 0.48560912,0.48560912 0 0 0 -0.4856,0.48561 v 17.48192 a 0.48560912,0.48560912 0 0 0 0.4856,0.48561 h 13.59707 a 0.48560912,0.48560912 0 0 0 0.4856,-0.48561 v -12.14022 h -3.88486 a 1.9424365,1.9424365 0 0 1 -1.94245,-1.94244 v -3.88487 z m 9.71217,0 v 3.88487 a 0.48560912,0.48560912 0 0 0 0.48564,0.48561 h 3.88486 a 0.48560912,0.48560912 0 0 0 -0.14169,-0.32633 l -3.90237,-3.90235 a 0.48560912,0.48560912 0 0 0 -0.32633,-0.1418 z m -11.65462,0.48561 a 1.9424365,1.9424365 0 0 1 1.94245,-1.94244 h 9.6947 a 1.9424365,1.9424365 0 0 1 1.3733,0.56913 l 3.90237,3.90236 a 1.9424365,1.9424365 0 0 1 0.56911,1.3733 v 13.57958 a 1.9424365,1.9424365 0 0 1 -1.94241,1.94243 h -13.59707 a 1.9424365,1.9424365 0 0 1 -1.94245,-1.94243 z"
         id="path11181"
         style="fill:#ffffff;stroke-width:0.971217" />
    </g>
    <g
       id="g11729"
       transform="translate(-118.30321,57.486269)">
      <path
         id="path11533"
         style="fill:#a0892c;stroke-width:2.2394;stroke-linecap:round;stop-color:#000000"
         d="m 249.6845,-35.793073 c -2.29212,0 -4.13721,1.845601 -4.13721,4.137732 v 8.473384 6.496243 8.473903 c 0,2.29213 1.84509,4.137215 4.13721,4.137215 h 31.27148 c 2.29212,0 4.13721,-1.845085 4.13721,-4.137215 v -8.473903 h 5.74747 l 4.34493,-3.247864 -4.34493,-3.248379 h -5.74747 v -8.473384 c 0,-2.292131 -1.84509,-4.137732 -4.13721,-4.137732 z m 41.71737,14.279748 v 0.661458 h 0.47077 v 0.252182 h -0.47077 v 1.546157 c 0,0.128471 0.0286,0.223395 0.0904,0.285255 0.0571,0.0619 0.15224,0.09043 0.27593,0.09043 h 0.0667 v 0.285769 h -0.0811 c -0.45199,0 -0.6754,-0.214514 -0.6754,-0.647504 v -1.560111 h -0.31419 v -0.252178 h 0.31419 v -0.514181 z m -3.683,0.623218 c 0.22838,0 0.40484,0.0714 0.53332,0.204639 0.12845,0.13798 0.19481,0.347038 0.19481,0.632518 v 0.861447 c 0,0.285469 -0.0663,0.4993 -0.19481,0.632521 -0.12848,0.137988 -0.30494,0.204636 -0.53332,0.204636 -0.23789,0 -0.41826,-0.0662 -0.54674,-0.199469 -0.13322,-0.133221 -0.19534,-0.347459 -0.19531,-0.637688 v -0.861447 c 0,-0.28548 0.0621,-0.4993 0.19531,-0.632518 0.12848,-0.13322 0.30885,-0.204639 0.54674,-0.204639 z m 1.24695,0.03824 h 0.32351 v 1.484146 c 0,0.261681 0.0236,0.447135 0.076,0.556556 0.0523,0.1142 0.15719,0.166915 0.31419,0.166915 0.10467,0 0.18061,-0.02371 0.2377,-0.07131 0.0523,-0.0476 0.0905,-0.119089 0.10957,-0.223758 0.019,-0.0999 0.0331,-0.24284 0.0331,-0.4284 v -1.484149 h 0.32351 v 1.703255 c 0,0.266441 -0.0615,0.466228 -0.17571,0.599448 -0.1142,0.133228 -0.29488,0.194818 -0.53279,0.194818 -0.24265,0 -0.42376,-0.0616 -0.53796,-0.194818 -0.11419,-0.13322 -0.17105,-0.333007 -0.17105,-0.599448 z m -1.25158,0.252182 c -0.13322,0 -0.23768,0.0472 -0.30904,0.132808 -0.0714,0.0904 -0.1049,0.242819 -0.1049,0.452168 v 0.784965 c 0,0.214109 0.0335,0.36653 0.1049,0.452168 0.0714,0.0904 0.17582,0.133326 0.30904,0.133326 0.13321,0 0.23299,-0.04289 0.30435,-0.133326 0.0666,-0.0904 0.1049,-0.242819 0.1049,-0.452168 v -0.784965 c 0,-0.209349 -0.0383,-0.356601 -0.1049,-0.447001 -0.0714,-0.0904 -0.17114,-0.137975 -0.30435,-0.137975 z" />
      <g
         id="g11539"
         transform="matrix(1.0996075,0,0,1.0996075,251.98226,-33.37587)"
         style="fill:#ffffff">
        <path
           d="M 9.25,12 A 0.75,0.75 0 0 1 9.03,12.53 L 6.28,15.28 A 0.75,0.75 0 0 1 5.22,14.22 L 7.44,12 5.22,9.78 A 0.75,0.75 0 1 1 6.28,8.72 l 2.75,2.75 c 0.141,0.14 0.22,0.331 0.22,0.53 z m 2,2 a 0.75,0.75 0 0 0 0,1.5 h 5 a 0.75,0.75 0 0 0 0,-1.5 z"
           id="path11535"
           style="fill:#ffffff" />
        <path
           fill-rule="evenodd"
           d="M 0,4.75 C 0,3.784 0.784,3 1.75,3 h 20.5 C 23.216,3 24,3.784 24,4.75 v 14.5 A 1.75,1.75 0 0 1 22.25,21 H 1.75 A 1.75,1.75 0 0 1 0,19.25 Z M 1.75,4.5 A 0.25,0.25 0 0 0 1.5,4.75 v 14.5 c 0,0.138 0.112,0.25 0.25,0.25 h 20.5 A 0.25,0.25 0 0 0 22.5,19.25 V 4.75 A 0.25,0.25 0 0 0 22.25,4.5 Z"
           id="path11537"
           style="fill:#ffffff" />
      </g>
    </g>
    <g
       id="g9726"
       transform="translate(-267.75188,76.110978)"
       inkscape:export-filename="/home/mrtin/dev/ingcom/intro-ingcom/archivos/ilustraciones/g9726.png"
       inkscape:export-xdpi="150"
       inkscape:export-ydpi="150">
      <g
         id="g9698">
        <path
           id="path2150"
           style="fill:#4d4d4d;stroke-width:4.21008;stroke-linecap:round;stop-color:#000000"
           d="m 499.21427,17.2221 c -2.29212,0 -4.13722,1.845611 -4.13722,4.137732 v 8.473385 h -9.84539 l 4.34495,3.24838 -4.34495,3.247864 h 9.84539 v 8.473901 c 0,2.292122 1.8451,4.137215 4.13722,4.137215 h 31.27147 c 2.29211,0 4.13721,-1.845093 4.13721,-4.137215 v -23.44353 c 0,-2.292121 -1.8451,-4.137732 -4.13721,-4.137732 z m -7.96282,14.142289 h 0.34416 v 0.448552 h -0.34416 z m 1.79989,0.817522 c 0.20437,0 0.36387,0.06987 0.47852,0.199471 0.10967,0.134588 0.1695,0.318654 0.1695,0.552937 v 1.864486 h -0.339 v -1.8495 c 0,-0.149542 -0.0398,-0.263892 -0.10955,-0.343648 -0.0748,-0.07976 -0.17492,-0.119889 -0.29456,-0.119889 -0.11963,0 -0.21926,0.04478 -0.29404,0.12454 -0.0748,0.07976 -0.10955,0.19444 -0.10955,0.338997 v 1.8495 h -0.339 v -2.577104 h 0.32918 v 0.234095 c 0.0498,-0.07976 0.11957,-0.149107 0.20929,-0.198955 0.0897,-0.04985 0.18954,-0.07493 0.29921,-0.07493 z m -1.79989,0.03979 h 0.339 v 2.577104 h -0.339 z" />
        <g
           id="g9582"
           style="fill:#ffffff">
          <g
             id="g11734"
             transform="translate(249.28999,17.933168)"
             style="fill:#ffffff">
            <g
               id="g9876"
               transform="matrix(1.0996075,0,0,1.0996075,252.40893,1.9528807)"
               style="fill:#ffffff">
              <path
                 d="M 9.25,12 A 0.75,0.75 0 0 1 9.03,12.53 L 6.28,15.28 A 0.75,0.75 0 0 1 5.22,14.22 L 7.44,12 5.22,9.78 A 0.75,0.75 0 1 1 6.28,8.72 l 2.75,2.75 c 0.141,0.14 0.22,0.331 0.22,0.53 z m 2,2 a 0.75,0.75 0 0 0 0,1.5 h 5 a 0.75,0.75 0 0 0 0,-1.5 z"
                 id="path9864"
                 style="fill:#ffffff" />
              <path
                 fill-rule="evenodd"
                 d="M 0,4.75 C 0,3.784 0.784,3 1.75,3 h 20.5 C 23.216,3 24,3.784 24,4.75 v 14.5 A 1.75,1.75 0 0 1 22.25,21 H 1.75 A 1.75,1.75 0 0 1 0,19.25 Z M 1.75,4.5 A 0.25,0.25 0 0 0 1.5,4.75 v 14.5 c 0,0.138 0.112,0.25 0.25,0.25 h 20.5 A 0.25,0.25 0 0 0 22.5,19.25 V 4.75 A 0.25,0.25 0 0 0 22.25,4.5 Z"
                 id="path9866"
                 style="fill:#ffffff" />
            </g>
          </g>
        </g>
      </g>
      <g
         id="g9600">
        <path
           id="rect2527"
           style="fill:#c83737;stroke-width:2.2394;stroke-linecap:round;stop-color:#000000"
           d="m 373.53459,27.451966 c -1.40458,0 -2.55862,1.032101 -2.7497,2.382284 H 360.847 l 4.34547,3.24838 -4.34547,3.247864 h 9.93789 c 0.19125,1.349985 1.34526,2.381767 2.7497,2.381767 h 41.19594 c 1.40444,0 2.55845,-1.031782 2.7497,-2.381767 h 4.50153 l 4.34444,-3.24838 -4.34444,-3.247864 h -4.50153 c -0.19108,-1.350183 -1.34512,-2.382284 -2.7497,-2.382284 z m -6.83576,3.91294 h 0.34417 v 0.448551 h -0.34417 z m 55.88548,0.137976 v 0.661458 h 0.47077 v 0.252181 h -0.47077 v 1.546159 c 0,0.128464 0.0286,0.223401 0.0904,0.285254 0.0571,0.06185 0.15224,0.09043 0.27595,0.09043 h 0.0667 v 0.28577 h -0.0811 c -0.45201,0 -0.67541,-0.214533 -0.67541,-0.647505 v -1.560112 h -0.31419 v -0.252181 h 0.31419 v -0.51418 z m -3.68298,0.623218 c 0.22838,0 0.40484,0.07142 0.5333,0.204638 0.12847,0.137981 0.19482,0.347044 0.19482,0.63252 v 0.861446 c 0,0.285476 -0.0663,0.499297 -0.19482,0.63252 -0.12846,0.13798 -0.30492,0.204638 -0.5333,0.204638 -0.2379,0 -0.41827,-0.06625 -0.54673,-0.199471 -0.13323,-0.133222 -0.19534,-0.347453 -0.19534,-0.637687 v -0.861446 c 0,-0.285476 0.0621,-0.499297 0.19534,-0.63252 0.12846,-0.133222 0.30883,-0.204638 0.54673,-0.204638 z m 1.24695,0.03824 h 0.3235 v 1.484147 c 0,0.261687 0.0236,0.447123 0.076,0.556556 0.0523,0.11419 0.15719,0.166914 0.3142,0.166914 0.10467,0 0.18061,-0.02373 0.23771,-0.07131 0.0523,-0.04758 0.0905,-0.119084 0.10955,-0.223759 0.019,-0.09992 0.0331,-0.242838 0.0331,-0.428398 v -1.484147 h 0.32349 v 1.703255 c 0,0.266445 -0.0615,0.466225 -0.1757,0.599447 -0.11419,0.133222 -0.29489,0.19482 -0.53278,0.19482 -0.24266,0 -0.42377,-0.0616 -0.53796,-0.19482 -0.11419,-0.133222 -0.17105,-0.333002 -0.17105,-0.599447 z m -51.65007,0.01809 c 0.20437,0 0.36387,0.06987 0.47852,0.199471 0.10967,0.134588 0.1695,0.318655 0.1695,0.552938 v 1.864486 h -0.339 v -1.8495 c 0,-0.149543 -0.0398,-0.263892 -0.10955,-0.343648 -0.0748,-0.07976 -0.17441,-0.11989 -0.29404,-0.11989 -0.11963,0 -0.21927,0.04478 -0.29404,0.124541 -0.0748,0.07976 -0.10955,0.194439 -0.10955,0.338997 v 1.8495 h -0.339 v -2.577104 h 0.32866 v 0.234094 c 0.0499,-0.07976 0.12008,-0.149107 0.20981,-0.198954 0.0897,-0.04985 0.18902,-0.07493 0.29869,-0.07493 z m -1.79938,0.03979 h 0.339 v 2.577104 h -0.339 z m 52.19785,0.194303 c -0.13322,0 -0.23765,0.04717 -0.30902,0.132809 -0.0714,0.0904 -0.10491,0.242819 -0.10491,0.452169 v 0.784965 c 0,0.214107 0.0335,0.366525 0.10491,0.452168 0.0714,0.0904 0.1758,0.133325 0.30902,0.133325 0.13322,0 0.23301,-0.04292 0.30437,-0.133325 0.0666,-0.0904 0.10491,-0.242819 0.10491,-0.452168 v -0.784965 c 0,-0.20935 -0.0383,-0.356601 -0.10491,-0.447002 -0.0714,-0.0904 -0.17115,-0.137976 -0.30437,-0.137976 z" />
        <text
           xml:space="preserve"
           style="font-size:6.37302px;line-height:1.25;font-family:'D-DIN Condensed';-inkscape-font-specification:'D-DIN Condensed, Normal';text-align:center;text-anchor:middle;fill:#ffffff;stroke-width:0.159326"
           x="395.02933"
           y="35.057751"
           id="text6447"><tspan
             sodipodi:role="line"
             id="tspan6445"
             style="font-style:normal;font-variant:normal;font-weight:normal;font-stretch:normal;font-size:6.37302px;font-family:'Share Tech Mono';-inkscape-font-specification:'Share Tech Mono, Normal';font-variant-ligatures:normal;font-variant-caps:normal;font-variant-numeric:normal;font-variant-east-asian:normal;fill:#ffffff;stroke-width:0.159326"
             x="395.02933"
             y="35.057751">sort -n</tspan></text>
      </g>
      <g
         id="g9595">
        <path
           id="path8279"
           style="fill:#000080;stroke-width:2.2394;stroke-linecap:round;stop-color:#000000"
           d="m 435.72667,27.45145 c -1.40458,0 -2.55863,1.032101 -2.74971,2.382284 h -9.93789 l 4.34547,3.24838 -4.34547,3.247864 h 9.93789 c 0.19125,1.349985 1.34527,2.381767 2.74971,2.381767 h 41.19593 c 1.40444,0 2.55845,-1.031782 2.7497,-2.381767 h 4.50154 l 4.34443,-3.248381 -4.34443,-3.247863 h -4.50154 c -0.19107,-1.350183 -1.34512,-2.382284 -2.7497,-2.382284 z m -6.83576,3.91294 h 0.34416 v 0.448551 h -0.34416 z m 55.88547,0.137976 v 0.661458 h 0.47078 v 0.252181 h -0.47078 v 1.546159 c 0,0.128464 0.0286,0.2234 0.0904,0.285254 0.0571,0.06185 0.15224,0.09043 0.27595,0.09043 h 0.0667 v 0.285771 h -0.0811 c -0.452,0 -0.67541,-0.214533 -0.67541,-0.647505 v -1.560109 h -0.31419 v -0.252181 h 0.31419 v -0.51418 z m -3.68298,0.623217 c 0.22838,0 0.40484,0.07142 0.53331,0.204639 0.12846,0.13798 0.19482,0.347043 0.19482,0.63252 v 0.861446 c -10e-6,0.285476 -0.0664,0.499297 -0.19482,0.632519 -0.12847,0.137981 -0.30493,0.204639 -0.53331,0.204639 -0.23789,0 -0.41827,-0.06625 -0.54673,-0.199471 -0.13322,-0.133222 -0.19534,-0.347453 -0.19534,-0.637687 v -0.861446 c 0,-0.285477 0.0621,-0.499298 0.19534,-0.63252 0.12846,-0.133222 0.30884,-0.204639 0.54673,-0.204639 z m 1.24696,0.03824 h 0.32349 v 1.484147 c 0,0.261687 0.0236,0.447123 0.076,0.556555 0.0523,0.114191 0.15718,0.166915 0.31419,0.166915 0.10467,0 0.18061,-0.02373 0.23771,-0.07131 0.0523,-0.04758 0.0905,-0.119084 0.10955,-0.223759 0.019,-0.09992 0.0331,-0.242838 0.0331,-0.428398 v -1.484147 h 0.32349 v 1.703255 c 0,0.266445 -0.0615,0.466225 -0.1757,0.599447 -0.11419,0.133222 -0.29489,0.19482 -0.53278,0.19482 -0.24266,0 -0.42376,-0.0616 -0.53795,-0.19482 -0.1142,-0.133222 -0.17105,-0.333002 -0.17105,-0.599447 z m -51.65008,0.01809 c 0.20437,0 0.36388,0.06987 0.47852,0.199471 0.10967,0.134588 0.1695,0.318654 0.1695,0.552938 v 1.864485 h -0.339 v -1.849499 c 0,-0.149543 -0.0398,-0.263893 -0.10955,-0.343649 -0.0748,-0.07976 -0.1744,-0.119889 -0.29404,-0.119889 -0.11963,0 -0.21927,0.04478 -0.29404,0.12454 -0.0748,0.07976 -0.10955,0.19444 -0.10955,0.338998 v 1.849499 h -0.339 v -2.577103 h 0.32866 v 0.234094 c 0.0498,-0.07976 0.12009,-0.149107 0.20981,-0.198954 0.0897,-0.04985 0.18902,-0.07493 0.29869,-0.07493 z m -1.79937,0.03979 h 0.33899 v 2.577103 h -0.33899 z m 52.19784,0.194303 c -0.13322,0 -0.23765,0.04717 -0.30902,0.132808 -0.0714,0.0904 -0.1049,0.24282 -0.1049,0.452169 v 0.784965 c 0,0.214107 0.0335,0.366526 0.1049,0.452169 0.0714,0.0904 0.1758,0.133325 0.30902,0.133325 0.13323,0 0.23301,-0.04292 0.30438,-0.133325 0.0666,-0.0904 0.1049,-0.24282 0.1049,-0.452169 v -0.784965 c 0,-0.209349 -0.0383,-0.3566 -0.1049,-0.447001 -0.0714,-0.0904 -0.17115,-0.137976 -0.30438,-0.137976 z" />
        <text
           xml:space="preserve"
           style="font-size:6.37302px;line-height:1.25;font-family:'D-DIN Condensed';-inkscape-font-specification:'D-DIN Condensed, Normal';text-align:center;text-anchor:middle;fill:#ffffff;stroke-width:0.159326"
           x="457.22144"
           y="35.057232"
           id="text8283"><tspan
             sodipodi:role="line"
             id="tspan8281"
             style="font-style:normal;font-variant:normal;font-weight:normal;font-stretch:normal;font-size:6.37302px;font-family:'Share Tech Mono';-inkscape-font-specification:'Share Tech Mono, Normal';font-variant-ligatures:normal;font-variant-caps:normal;font-variant-numeric:normal;font-variant-east-asian:normal;fill:#ffffff;stroke-width:0.159326"
             x="457.22144"
             y="35.057232">head -n 1</tspan></text>
      </g>
      <path
         id="rect1294"
         style="fill:#a0892c;stroke-width:2.2394;stroke-linecap:round;stop-color:#000000"
         d="m 311.342,27.451966 c -1.53907,0 -2.77813,1.239056 -2.77813,2.778126 v 5.704561 c 0,1.539069 1.23906,2.778125 2.77813,2.778125 h 41.19594 c 1.40457,0 2.55862,-1.032107 2.7497,-2.382283 h 4.50153 l 4.34496,-3.247864 -4.34496,-3.24838 h -4.50153 c -0.19108,-1.350177 -1.34513,-2.382285 -2.7497,-2.382285 z m 49.00838,4.050916 v 0.661459 h 0.47077 v 0.252181 h -0.47077 v 1.546159 c 0,0.128464 0.0286,0.2234 0.0904,0.285253 0.0571,0.06185 0.15225,0.09043 0.27596,0.09043 h 0.0667 v 0.285771 h -0.0811 c -0.45201,0 -0.67542,-0.214533 -0.67542,-0.647506 v -1.560111 h -0.31419 v -0.252181 h 0.31419 V 31.650156 Z M 356.6674,32.1261 c 0.22838,0 0.40484,0.07142 0.5333,0.204639 0.12846,0.13798 0.19482,0.347043 0.19482,0.63252 v 0.861446 c 0,0.285476 -0.0664,0.499297 -0.19482,0.632519 -0.12846,0.13798 -0.30492,0.204639 -0.5333,0.204639 -0.2379,0 -0.41827,-0.06625 -0.54674,-0.199471 -0.13322,-0.133223 -0.19533,-0.347453 -0.19533,-0.637687 v -0.861446 c 0,-0.285477 0.0621,-0.499298 0.19533,-0.63252 0.12847,-0.133222 0.30884,-0.204639 0.54674,-0.204639 z m 1.24695,0.03824 h 0.32349 v 1.484147 c 10e-6,0.261686 0.0236,0.447122 0.076,0.556555 0.0523,0.114191 0.15718,0.166915 0.31419,0.166915 0.10468,0 0.18062,-0.02373 0.23771,-0.07131 0.0523,-0.04758 0.0905,-0.119084 0.10956,-0.223758 0.019,-0.09992 0.0331,-0.242839 0.0331,-0.428398 v -1.484147 h 0.3235 v 1.703255 c 0,0.266445 -0.0615,0.466224 -0.1757,0.599446 -0.11419,0.133223 -0.29489,0.194821 -0.53279,0.194821 -0.24265,0 -0.42376,-0.0616 -0.53795,-0.194821 -0.11419,-0.133222 -0.17105,-0.333001 -0.17105,-0.599446 z m -1.2516,0.252181 c -0.13322,0 -0.23766,0.04716 -0.30903,0.132808 -0.0714,0.0904 -0.1049,0.24282 -0.1049,0.452169 v 0.784965 c 0,0.214107 0.0335,0.366526 0.1049,0.452169 0.0714,0.0904 0.17581,0.133325 0.30903,0.133325 0.13322,0 0.233,-0.04292 0.30437,-0.133325 0.0666,-0.0904 0.10491,-0.24282 0.10491,-0.452169 v -0.784965 c 0,-0.209349 -0.0383,-0.3566 -0.10491,-0.447001 -0.0714,-0.0904 -0.17115,-0.137976 -0.30437,-0.137976 z" />
      <text
         xml:space="preserve"
         style="font-size:6.37302px;line-height:1.25;font-family:'D-DIN Condensed';-inkscape-font-specification:'D-DIN Condensed, Normal';text-align:center;text-anchor:middle;fill:#ffffff;stroke-width:0.159326"
         x="333.29202"
         y="35.38303"
         id="text13985"><tspan
           sodipodi:role="line"
           id="tspan13983"
           style="font-style:normal;font-variant:normal;font-weight:normal;font-stretch:normal;font-size:6.37302px;font-family:'Share Tech Mono';-inkscape-font-specification:'Share Tech Mono, Normal';font-variant-ligatures:normal;font-variant-caps:normal;font-variant-numeric:normal;font-variant-east-asian:normal;fill:#ffffff;stroke-width:0.159326"
           x="333.29202"
           y="35.38303">wc -l *.txt</tspan></text>
    </g>
    <g
       id="g19667"
       inkscape:export-filename="/home/mrtin/dev/ingcom/intro-ingcom/archivos/ilustraciones/g19667.png"
       inkscape:export-xdpi="150"
       inkscape:export-ydpi="150"
       transform="translate(-284.18818,33.370525)">
      <path
         id="path9254"
         style="fill:#a0892c;stroke-width:2.2394;stroke-linecap:round;stop-color:#000000"
         d="m 450.97282,131.88771 c -1.53907,0 -2.77813,1.23905 -2.77813,2.77812 v 5.70456 c 0,1.53907 1.23906,2.77813 2.77813,2.77813 h 41.19594 c 1.40457,0 2.55862,-1.03211 2.7497,-2.38228 h 4.50153 l 4.34496,-3.24787 -4.34496,-3.24838 h -4.50153 c -0.19108,-1.35018 -1.34513,-2.38228 -2.7497,-2.38228 z m 49.00838,4.05091 v 0.66146 h 0.47077 v 0.25218 h -0.47077 v 1.54616 c 0,0.12847 0.0286,0.2234 0.0904,0.28525 0.0571,0.0618 0.15225,0.0904 0.27596,0.0904 h 0.0667 v 0.28578 h -0.0811 c -0.45201,0 -0.67542,-0.21454 -0.67542,-0.64751 v -1.56011 h -0.31419 v -0.25218 h 0.31419 v -0.51418 z m -3.68298,0.62322 c 0.22838,0 0.40484,0.0714 0.5333,0.20464 0.12846,0.13798 0.19482,0.34704 0.19482,0.63252 v 0.86145 c 0,0.28547 -0.0664,0.49929 -0.19482,0.63251 -0.12846,0.13798 -0.30492,0.20464 -0.5333,0.20464 -0.2379,0 -0.41827,-0.0662 -0.54674,-0.19947 -0.13322,-0.13322 -0.19533,-0.34745 -0.19533,-0.63768 V 137.399 c 0,-0.28548 0.0621,-0.4993 0.19533,-0.63252 0.12847,-0.13322 0.30884,-0.20464 0.54674,-0.20464 z m 1.24695,0.0382 h 0.32349 v 1.48415 c 1e-5,0.26168 0.0236,0.44712 0.076,0.55655 0.0523,0.11419 0.15718,0.16692 0.31419,0.16692 0.10468,0 0.18062,-0.0237 0.23771,-0.0713 0.0523,-0.0476 0.0905,-0.11909 0.10956,-0.22376 0.019,-0.0999 0.0331,-0.24284 0.0331,-0.4284 v -1.48415 h 0.3235 v 1.70326 c 0,0.26645 -0.0615,0.46622 -0.1757,0.59945 -0.11419,0.13322 -0.29489,0.19482 -0.53279,0.19482 -0.24265,0 -0.42376,-0.0616 -0.53795,-0.19482 -0.11419,-0.13323 -0.17105,-0.333 -0.17105,-0.59945 z m -1.2516,0.25218 c -0.13322,0 -0.23766,0.0472 -0.30903,0.13281 -0.0714,0.0904 -0.1049,0.24282 -0.1049,0.45217 v 0.78496 c 0,0.21411 0.0335,0.36653 0.1049,0.45217 0.0714,0.0904 0.17581,0.13333 0.30903,0.13333 0.13322,0 0.233,-0.0429 0.30437,-0.13333 0.0666,-0.0904 0.10491,-0.24282 0.10491,-0.45217 v -0.78496 c 0,-0.20935 -0.0383,-0.3566 -0.10491,-0.447 -0.0714,-0.0904 -0.17115,-0.13798 -0.30437,-0.13798 z" />
      <text
         xml:space="preserve"
         style="font-size:6.37302px;line-height:1.25;font-family:'D-DIN Condensed';-inkscape-font-specification:'D-DIN Condensed, Normal';text-align:center;text-anchor:middle;fill:#ffffff;stroke-width:0.159326"
         x="472.92282"
         y="139.81877"
         id="text9258"><tspan
           sodipodi:role="line"
           id="tspan9256"
           style="font-style:normal;font-variant:normal;font-weight:normal;font-stretch:normal;font-size:6.37302px;font-family:'Share Tech Mono';-inkscape-font-specification:'Share Tech Mono, Normal';font-variant-ligatures:normal;font-variant-caps:normal;font-variant-numeric:normal;font-variant-east-asian:normal;fill:#ffffff;stroke-width:0.159326"
           x="472.92282"
           y="139.81877">wc -l *.txt</tspan></text>
      <path
         id="path9264"
         style="fill:#4d4d4d;stroke-width:4.21008;stroke-linecap:round;stop-color:#000000"
         d="m 514.46094,121.65887 c -2.29212,0 -4.13722,1.84562 -4.13722,4.13774 v 8.47338 h -9.84539 l 4.34495,3.24838 -4.34495,3.24786 h 9.84539 v 8.47391 c 0,2.29212 1.8451,4.13721 4.13722,4.13721 h 31.27147 c 2.29211,0 4.13721,-1.84509 4.13721,-4.13721 v -23.44353 c 0,-2.29212 -1.8451,-4.13774 -4.13721,-4.13774 z m -7.96282,14.14229 h 0.34416 v 0.44855 h -0.34416 z m 1.79989,0.81752 c 0.20437,0 0.36387,0.0699 0.47852,0.19948 0.10967,0.13458 0.1695,0.31865 0.1695,0.55293 v 1.86449 h -0.339 v -1.8495 c 0,-0.14954 -0.0398,-0.26389 -0.10955,-0.34365 -0.0748,-0.0798 -0.17492,-0.11989 -0.29456,-0.11989 -0.11963,0 -0.21926,0.0448 -0.29404,0.12454 -0.0748,0.0798 -0.10955,0.19444 -0.10955,0.339 v 1.8495 h -0.339 v -2.57711 h 0.32918 v 0.2341 c 0.0498,-0.0798 0.11957,-0.14911 0.20929,-0.19896 0.0897,-0.0499 0.18954,-0.0749 0.29921,-0.0749 z m -1.79989,0.0398 h 0.339 v 2.57711 h -0.339 z" />
      <g
         id="g9270"
         transform="matrix(1.0996075,0,0,1.0996075,516.94559,124.32282)"
         style="fill:#ffffff">
        <path
           d="M 9.25,12 A 0.75,0.75 0 0 1 9.03,12.53 L 6.28,15.28 A 0.75,0.75 0 0 1 5.22,14.22 L 7.44,12 5.22,9.78 A 0.75,0.75 0 1 1 6.28,8.72 l 2.75,2.75 c 0.141,0.14 0.22,0.331 0.22,0.53 z m 2,2 a 0.75,0.75 0 0 0 0,1.5 h 5 a 0.75,0.75 0 0 0 0,-1.5 z"
           id="path9266"
           style="fill:#ffffff" />
        <path
           fill-rule="evenodd"
           d="M 0,4.75 C 0,3.784 0.784,3 1.75,3 h 20.5 C 23.216,3 24,3.784 24,4.75 v 14.5 A 1.75,1.75 0 0 1 22.25,21 H 1.75 A 1.75,1.75 0 0 1 0,19.25 Z M 1.75,4.5 A 0.25,0.25 0 0 0 1.5,4.75 v 14.5 c 0,0.138 0.112,0.25 0.25,0.25 h 20.5 A 0.25,0.25 0 0 0 22.5,19.25 V 4.75 A 0.25,0.25 0 0 0 22.25,4.5 Z"
           id="path9268"
           style="fill:#ffffff" />
      </g>
    </g>
    <g
       id="g19658"
       inkscape:export-filename="/home/mrtin/dev/ingcom/intro-ingcom/archivos/ilustraciones/g19658.png"
       inkscape:export-xdpi="150"
       inkscape:export-ydpi="150"
       transform="translate(-284.18818,33.370525)">
      <g
         id="g9458"
         transform="translate(8.3233216,-5.7424938)"
         inkscape:export-filename="/home/mrtin/dev/ingcom/intro-ingcom/archivos/ilustraciones/g9458.png"
         inkscape:export-xdpi="150"
         inkscape:export-ydpi="150">
        <g
           id="g10850"
           transform="translate(139.57764,50.517544)">
          <path
             id="path10346"
             style="fill:#008000;stroke-width:4.21008;stroke-linecap:round;stop-color:#000000"
             d="m 244.33399,66.371576 c -2.29212,0 -4.13721,1.84561 -4.13721,4.137732 v 8.473384 h -9.84539 l 4.34495,3.248381 -4.34495,3.247863 h 9.84539 v 8.473901 c 0,2.292123 1.84509,4.137216 4.13721,4.137216 h 31.27148 c 2.29211,0 4.13721,-1.845093 4.13721,-4.137216 V 70.509308 c 0,-2.292122 -1.8451,-4.137732 -4.13721,-4.137732 z m -7.96282,14.142289 h 0.34417 v 0.448551 h -0.34417 z m 1.79989,0.817521 c 0.20438,0 0.36388,0.06987 0.47853,0.199471 0.10966,0.134588 0.16949,0.318655 0.16949,0.552938 v 1.864486 h -0.33899 v -1.8495 c 0,-0.149543 -0.0398,-0.263892 -0.10956,-0.343648 -0.0748,-0.07976 -0.17492,-0.11989 -0.29455,-0.11989 -0.11964,0 -0.21927,0.04478 -0.29404,0.124541 -0.0748,0.07976 -0.10955,0.194439 -0.10955,0.338997 v 1.8495 h -0.339 v -2.577104 h 0.32918 v 0.234094 c 0.0498,-0.07976 0.11956,-0.149107 0.20929,-0.198954 0.0897,-0.04985 0.18954,-0.07493 0.2992,-0.07493 z m -1.79989,0.03979 h 0.339 v 2.577104 h -0.339 z" />
          <path
             fill-rule="evenodd"
             d="m 252.90086,73.004238 a 0.48560912,0.48560912 0 0 0 -0.4856,0.485611 v 17.481928 a 0.48560912,0.48560912 0 0 0 0.4856,0.48561 h 13.59707 a 0.48560912,0.48560912 0 0 0 0.4856,-0.48561 V 78.831548 h -3.88486 a 1.9424365,1.9424365 0 0 1 -1.94245,-1.942434 v -3.884876 z m 9.71217,0 v 3.884876 a 0.48560912,0.48560912 0 0 0 0.48564,0.485606 h 3.88486 a 0.48560912,0.48560912 0 0 0 -0.14169,-0.326329 l -3.90237,-3.902352 a 0.48560912,0.48560912 0 0 0 -0.32633,-0.141801 z m -11.65462,0.485611 a 1.9424365,1.9424365 0 0 1 1.94245,-1.942438 h 9.6947 a 1.9424365,1.9424365 0 0 1 1.3733,0.569134 l 3.90237,3.902356 a 1.9424365,1.9424365 0 0 1 0.56911,1.373303 v 13.579573 a 1.9424365,1.9424365 0 0 1 -1.94241,1.942437 h -13.59707 a 1.9424365,1.9424365 0 0 1 -1.94245,-1.942437 z"
             id="path9878"
             style="fill:#ffffff;stroke-width:0.971217" />
        </g>
        <path
           id="path9360"
           style="fill:#a0892c;stroke-width:2.2394;stroke-linecap:round;stop-color:#000000"
           d="m 320.42352,127.11795 c -1.53907,0 -2.77813,1.23906 -2.77813,2.77813 v 5.70456 c 0,1.53907 1.23906,2.77812 2.77813,2.77812 h 41.19594 c 1.40457,0 2.55862,-1.0321 2.7497,-2.38228 h 4.50153 l 4.34496,-3.24786 -4.34496,-3.24838 h -4.50153 c -0.19108,-1.35018 -1.34513,-2.38229 -2.7497,-2.38229 z m 49.00838,4.05092 v 0.66146 h 0.47077 v 0.25218 h -0.47077 v 1.54616 c 0,0.12846 0.0286,0.2234 0.0904,0.28525 0.0571,0.0619 0.15225,0.0904 0.27596,0.0904 h 0.0667 v 0.28577 h -0.0811 c -0.45201,0 -0.67542,-0.21453 -0.67542,-0.64751 v -1.56011 h -0.31419 v -0.25218 h 0.31419 v -0.51418 z m -3.68298,0.62321 c 0.22838,0 0.40484,0.0714 0.5333,0.20464 0.12846,0.13798 0.19482,0.34705 0.19482,0.63252 v 0.86145 c 0,0.28548 -0.0664,0.4993 -0.19482,0.63252 -0.12846,0.13798 -0.30492,0.20464 -0.5333,0.20464 -0.2379,0 -0.41827,-0.0663 -0.54674,-0.19947 -0.13322,-0.13323 -0.19533,-0.34746 -0.19533,-0.63769 v -0.86145 c 0,-0.28547 0.0621,-0.49929 0.19533,-0.63252 0.12847,-0.13322 0.30884,-0.20464 0.54674,-0.20464 z m 1.24695,0.0382 h 0.32349 v 1.48415 c 10e-6,0.26169 0.0236,0.44712 0.076,0.55656 0.0523,0.11419 0.15718,0.16691 0.31419,0.16691 0.10468,0 0.18062,-0.0237 0.23771,-0.0713 0.0523,-0.0476 0.0905,-0.11908 0.10956,-0.22376 0.019,-0.0999 0.0331,-0.24284 0.0331,-0.42839 v -1.48415 h 0.3235 v 1.70325 c 0,0.26645 -0.0615,0.46623 -0.1757,0.59945 -0.11419,0.13322 -0.29489,0.19482 -0.53279,0.19482 -0.24265,0 -0.42376,-0.0616 -0.53795,-0.19482 -0.11419,-0.13322 -0.17105,-0.333 -0.17105,-0.59945 z m -1.2516,0.25219 c -0.13322,0 -0.23766,0.0472 -0.30903,0.1328 -0.0714,0.0904 -0.1049,0.24282 -0.1049,0.45217 v 0.78497 c 0,0.2141 0.0335,0.36652 0.1049,0.45217 0.0714,0.0904 0.17581,0.13332 0.30903,0.13332 0.13322,0 0.233,-0.0429 0.30437,-0.13332 0.0666,-0.0904 0.10491,-0.24282 0.10491,-0.45217 v -0.78497 c 0,-0.20935 -0.0383,-0.3566 -0.10491,-0.447 -0.0714,-0.0904 -0.17115,-0.13797 -0.30437,-0.13797 z" />
        <text
           xml:space="preserve"
           style="font-size:6.37302px;line-height:1.25;font-family:'D-DIN Condensed';-inkscape-font-specification:'D-DIN Condensed, Normal';text-align:center;text-anchor:middle;fill:#ffffff;stroke-width:0.159326"
           x="342.3735"
           y="135.04901"
           id="text9368"><tspan
             sodipodi:role="line"
             id="tspan9366"
             style="font-style:normal;font-variant:normal;font-weight:normal;font-stretch:normal;font-size:6.37302px;font-family:'Share Tech Mono';-inkscape-font-specification:'Share Tech Mono, Normal';font-variant-ligatures:normal;font-variant-caps:normal;font-variant-numeric:normal;font-variant-east-asian:normal;fill:#ffffff;stroke-width:0.159326"
             x="342.3735"
             y="135.04901">wc -l *.txt</tspan></text>
      </g>
    </g>
  </g>
</svg>
