<?xml version="1.0" encoding="UTF-8" standalone="no"?>
<svg
   xmlns:dc="http://purl.org/dc/elements/1.1/"
   xmlns:cc="http://creativecommons.org/ns#"
   xmlns:rdf="http://www.w3.org/1999/02/22-rdf-syntax-ns#"
   xmlns:svg="http://www.w3.org/2000/svg"
   xmlns="http://www.w3.org/2000/svg"
   xmlns:xlink="http://www.w3.org/1999/xlink"
   xmlns:sodipodi="http://sodipodi.sourceforge.net/DTD/sodipodi-0.dtd"
   xmlns:inkscape="http://www.inkscape.org/namespaces/inkscape"
   width="1280"
   height="640"
   viewBox="0 0 338.66659 169.33334"
   version="1.1"
   id="svg8"
   inkscape:version="1.0.1 (3bc2e813f5, 2020-09-07)"
   sodipodi:docname="grafica-repositorios.svg"
   inkscape:export-filename="/home/mrtin/repo.png"
   inkscape:export-xdpi="96"
   inkscape:export-ydpi="96">
  <defs
     id="defs2">
    <linearGradient
       inkscape:collect="always"
       id="linearGradient881">
      <stop
         style="stop-color:#b4282a;stop-opacity:0.28093682"
         offset="0"
         id="stop877" />
      <stop
         style="stop-color:#e12e14;stop-opacity:0"
         offset="1"
         id="stop879" />
    </linearGradient>
    <linearGradient
       inkscape:collect="always"
       xlink:href="#linearGradient881"
       id="linearGradient887"
       x1="257.44348"
       y1="43.550613"
       x2="20.625853"
       y2="152.96494"
       gradientUnits="userSpaceOnUse" />
  </defs>
  <sodipodi:namedview
     id="base"
     pagecolor="#ffffff"
     bordercolor="#666666"
     borderopacity="1.0"
     inkscape:pageopacity="0.0"
     inkscape:pageshadow="2"
     inkscape:zoom="0.65639754"
     inkscape:cx="549.14803"
     inkscape:cy="407.53794"
     inkscape:document-units="mm"
     inkscape:current-layer="layer1"
     inkscape:document-rotation="0"
     showgrid="false"
     units="px"
     width="1280px"
     showguides="true"
     inkscape:guide-bbox="true"
     inkscape:window-width="1864"
     inkscape:window-height="1016"
     inkscape:window-x="56"
     inkscape:window-y="27"
     inkscape:window-maximized="1"
     inkscape:snap-page="true">
    <sodipodi:guide
       position="20.62585,172.08398"
       orientation="1,0"
       id="guide849" />
    <sodipodi:guide
       position="268.47058,72.336133"
       orientation="0,-1"
       id="guide851" />
    <sodipodi:guide
       position="20.625847,20.731477"
       orientation="0,-1"
       id="guide853" />
    <sodipodi:guide
       position="318.03607,169.90827"
       orientation="1,0"
       id="guide855" />
  </sodipodi:namedview>
  <metadata
     id="metadata5">
    <rdf:RDF>
      <cc:Work
         rdf:about="">
        <dc:format>image/svg+xml</dc:format>
        <dc:type
           rdf:resource="http://purl.org/dc/dcmitype/StillImage" />
        <dc:title />
      </cc:Work>
    </rdf:RDF>
  </metadata>
  <g
     inkscape:label="Capa 1"
     inkscape:groupmode="layer"
     id="layer1">
    <g
       id="g937"
       transform="matrix(1.1984988,0,0,1.1984988,20.572997,118.91952)">
      <g
         enable-background="new    "
         id="g905">
        <path
           fill="#00263e"
           d="M 49.692,7.128 V 2.942 h 0.812 v 4.135 c 0,1.562 0.812,2.427 2.201,2.427 1.327,0 2.17,-0.802 2.17,-2.376 V 2.942 h 0.812 v 4.124 c 0,2.108 -1.203,3.188 -3.003,3.188 -1.778,0.001 -2.992,-1.089 -2.992,-3.126 z"
           id="path867" />
        <path
           fill="#00263e"
           d="m 57.479,4.824 h 0.792 V 5.75 c 0.36,-0.576 0.905,-1.038 1.82,-1.038 1.275,0 2.037,0.863 2.037,2.128 v 3.302 H 61.336 V 7.036 c 0,-0.987 -0.524,-1.604 -1.471,-1.604 -0.916,0 -1.594,0.668 -1.594,1.666 v 3.044 h -0.792 z"
           id="path869" />
        <path
           fill="#00263e"
           d="m 63.835,2.788 h 0.905 v 0.874 h -0.905 z m 0.052,2.036 h 0.792 v 5.317 h -0.792 z"
           id="path871" />
        <path
           fill="#00263e"
           d="m 65.995,4.824 h 0.874 l 1.79,4.412 1.8,-4.412 h 0.854 l -2.314,5.358 H 68.3 Z"
           id="path873" />
        <path
           fill="#00263e"
           d="m 73.03,7.807 c 0.113,1.121 0.936,1.77 1.872,1.77 0.74,0 1.234,-0.299 1.676,-0.751 l 0.494,0.442 c -0.535,0.606 -1.172,0.997 -2.19,0.997 -1.45,0 -2.654,-1.121 -2.654,-2.776 0,-1.543 1.07,-2.776 2.551,-2.776 1.573,0 2.479,1.254 2.479,2.817 0,0.072 0,0.154 -0.01,0.277 z M 76.455,7.169 C 76.373,6.213 75.797,5.38 74.758,5.38 c -0.905,0 -1.615,0.761 -1.728,1.789 z"
           id="path875" />
        <path
           fill="#00263e"
           d="m 78.646,4.824 h 0.792 v 1.389 c 0.391,-0.885 1.162,-1.512 2.17,-1.48 v 0.854 h -0.062 c -1.162,0 -2.107,0.833 -2.107,2.438 v 2.118 H 78.647 V 4.824 Z"
           id="path877" />
        <path
           fill="#00263e"
           d="m 82.371,9.463 0.4,-0.565 c 0.576,0.442 1.215,0.679 1.842,0.679 0.647,0 1.1,-0.319 1.1,-0.844 V 8.712 c 0,-0.524 -0.627,-0.74 -1.326,-0.936 C 83.565,7.529 82.628,7.261 82.628,6.274 v -0.02 c 0,-0.915 0.761,-1.521 1.81,-1.521 0.658,0 1.369,0.226 1.914,0.586 l -0.36,0.597 C 85.498,5.596 84.941,5.4 84.417,5.4 c -0.628,0 -1.029,0.329 -1.029,0.771 v 0.021 c 0,0.504 0.658,0.699 1.368,0.915 0.823,0.247 1.708,0.565 1.708,1.522 V 8.65 c 0,1.008 -0.834,1.594 -1.893,1.594 -0.771,0 -1.594,-0.298 -2.2,-0.781 z"
           id="path879" />
        <path
           fill="#00263e"
           d="m 87.955,2.788 h 0.906 v 0.874 h -0.906 z m 0.052,2.036 h 0.791 v 5.317 h -0.791 z"
           id="path881" />
        <path
           fill="#00263e"
           d="m 90.332,7.498 v -0.02 c 0,-1.728 1.265,-2.766 2.54,-2.766 0.987,0 1.625,0.524 2.036,1.131 V 2.634 H 95.7 v 7.508 h -0.792 v -1.07 c -0.441,0.638 -1.049,1.183 -2.036,1.183 -1.276,0 -2.54,-1.008 -2.54,-2.757 z m 4.607,-0.01 v -0.02 c 0,-1.224 -0.936,-2.047 -1.924,-2.047 -1.027,0 -1.871,0.761 -1.871,2.047 v 0.021 c 0,1.265 0.854,2.057 1.871,2.057 0.988,-10e-4 1.924,-0.834 1.924,-2.058 z"
           id="path883" />
        <path
           fill="#00263e"
           d="M 97.068,8.599 V 8.578 c 0,-1.142 0.926,-1.738 2.273,-1.738 0.689,0 1.142,0.093 1.625,0.227 V 6.902 c 0,-0.946 -0.576,-1.44 -1.574,-1.44 -0.627,0 -1.121,0.145 -1.614,0.381 L 97.542,5.195 c 0.586,-0.277 1.151,-0.452 1.934,-0.452 0.751,0 1.327,0.195 1.718,0.586 0.369,0.37 0.555,0.896 0.555,1.563 v 3.25 h -0.781 V 9.35 c -0.371,0.483 -0.977,0.905 -1.913,0.905 -0.999,0 -1.987,-0.556 -1.987,-1.656 z m 3.908,-0.411 V 7.694 c -0.4,-0.113 -0.895,-0.227 -1.553,-0.227 -0.987,0 -1.553,0.422 -1.553,1.069 v 0.021 c 0,0.669 0.627,1.06 1.337,1.06 0.978,0 1.769,-0.576 1.769,-1.429 z"
           id="path885" />
        <path
           fill="#00263e"
           d="m 103.117,7.498 v -0.02 c 0,-1.728 1.265,-2.766 2.54,-2.766 0.987,0 1.625,0.524 2.036,1.131 V 2.634 h 0.792 v 7.508 h -0.792 v -1.07 c -0.441,0.638 -1.049,1.183 -2.036,1.183 -1.276,0 -2.54,-1.008 -2.54,-2.757 z m 4.607,-0.01 v -0.02 c 0,-1.224 -0.936,-2.047 -1.924,-2.047 -1.027,0 -1.871,0.761 -1.871,2.047 v 0.021 c 0,1.265 0.854,2.057 1.871,2.057 0.989,-10e-4 1.924,-0.834 1.924,-2.058 z"
           id="path887" />
        <path
           fill="#00263e"
           d="m 113.474,2.942 h 0.762 l 4.535,5.77 v -5.77 h 0.791 v 7.199 h -0.647 l -4.648,-5.903 v 5.903 h -0.792 V 2.942 Z"
           id="path889" />
        <path
           fill="#00263e"
           d="M 121.066,8.599 V 8.578 c 0,-1.142 0.926,-1.738 2.272,-1.738 0.688,0 1.142,0.093 1.625,0.227 V 6.902 c 0,-0.946 -0.576,-1.44 -1.573,-1.44 -0.628,0 -1.121,0.145 -1.615,0.381 l -0.236,-0.648 c 0.586,-0.277 1.152,-0.452 1.934,-0.452 0.75,0 1.326,0.195 1.717,0.586 0.371,0.37 0.556,0.896 0.556,1.563 v 3.25 h -0.781 V 9.35 c -0.37,0.483 -0.978,0.905 -1.913,0.905 -1,0 -1.986,-0.556 -1.986,-1.656 z m 3.908,-0.411 V 7.694 c -0.402,-0.113 -0.896,-0.227 -1.554,-0.227 -0.987,0 -1.553,0.422 -1.553,1.069 v 0.021 c 0,0.669 0.628,1.06 1.337,1.06 0.977,0 1.77,-0.576 1.77,-1.429 z"
           id="path891" />
        <path
           fill="#00263e"
           d="M 127.093,7.509 V 7.488 c 0,-1.512 1.162,-2.776 2.725,-2.776 1.008,0 1.625,0.411 2.129,0.945 l -0.523,0.556 c -0.422,-0.442 -0.885,-0.802 -1.615,-0.802 -1.08,0 -1.902,0.904 -1.902,2.057 v 0.021 c 0,1.151 0.843,2.067 1.953,2.067 0.689,0 1.203,-0.34 1.625,-0.792 l 0.504,0.473 c -0.534,0.607 -1.172,1.028 -2.17,1.028 -1.564,0 -2.726,-1.265 -2.726,-2.756 z"
           id="path893" />
        <path
           fill="#00263e"
           d="m 133.316,2.788 h 0.904 v 0.874 h -0.904 z m 0.051,2.036 h 0.793 v 5.317 h -0.793 z"
           id="path895" />
        <path
           fill="#00263e"
           d="M 135.671,7.509 V 7.488 c 0,-1.512 1.162,-2.776 2.776,-2.776 1.604,0 2.767,1.254 2.767,2.756 v 0.021 c 0,1.512 -1.183,2.776 -2.787,2.776 -1.594,0 -2.756,-1.254 -2.756,-2.756 z m 4.731,0 V 7.488 c 0,-1.142 -0.854,-2.077 -1.975,-2.077 -1.152,0 -1.943,0.936 -1.943,2.057 v 0.021 c 0,1.142 0.843,2.067 1.964,2.067 1.151,0 1.954,-0.937 1.954,-2.047 z"
           id="path897" />
        <path
           fill="#00263e"
           d="m 142.645,4.824 h 0.792 V 5.75 c 0.359,-0.576 0.905,-1.038 1.82,-1.038 1.275,0 2.037,0.863 2.037,2.128 v 3.302 h -0.793 V 7.036 c 0,-0.987 -0.523,-1.604 -1.471,-1.604 -0.915,0 -1.594,0.668 -1.594,1.666 v 3.044 h -0.792 V 4.824 Z"
           id="path899" />
        <path
           fill="#00263e"
           d="M 148.58,8.599 V 8.578 c 0,-1.142 0.926,-1.738 2.273,-1.738 0.689,0 1.142,0.093 1.625,0.227 V 6.902 c 0,-0.946 -0.576,-1.44 -1.574,-1.44 -0.627,0 -1.121,0.145 -1.614,0.381 l -0.236,-0.648 c 0.586,-0.277 1.151,-0.452 1.934,-0.452 0.751,0 1.327,0.195 1.718,0.586 0.369,0.37 0.555,0.896 0.555,1.563 v 3.25 H 152.48 V 9.35 c -0.371,0.483 -0.977,0.905 -1.913,0.905 -0.999,0 -1.987,-0.556 -1.987,-1.656 z m 3.908,-0.411 V 7.694 c -0.4,-0.113 -0.895,-0.227 -1.553,-0.227 -0.987,0 -1.553,0.422 -1.553,1.069 v 0.021 c 0,0.669 0.627,1.06 1.337,1.06 0.978,0 1.769,-0.576 1.769,-1.429 z"
           id="path901" />
        <path
           fill="#00263e"
           d="m 155.009,2.634 h 0.791 v 7.508 h -0.791 z"
           id="path903" />
      </g>
      <g
         enable-background="new    "
         id="g911">
        <path
           fill="#00263e"
           d="m 49.363,20.843 v -0.021 c 0,-1.728 1.265,-2.766 2.54,-2.766 0.987,0 1.625,0.524 2.036,1.131 v -3.209 h 0.792 v 7.508 h -0.792 v -1.069 c -0.442,0.638 -1.049,1.183 -2.036,1.183 -1.275,0 -2.54,-1.008 -2.54,-2.757 z m 4.608,-0.01 v -0.021 c 0,-1.224 -0.936,-2.047 -1.923,-2.047 -1.028,0 -1.872,0.761 -1.872,2.047 v 0.021 c 0,1.265 0.854,2.057 1.872,2.057 0.987,0 1.923,-0.833 1.923,-2.057 z"
           id="path907" />
        <path
           fill="#00263e"
           d="m 56.974,21.151 c 0.113,1.121 0.936,1.77 1.872,1.77 0.74,0 1.234,-0.299 1.676,-0.751 l 0.494,0.442 c -0.535,0.606 -1.172,0.997 -2.191,0.997 -1.45,0 -2.653,-1.121 -2.653,-2.776 0,-1.543 1.07,-2.776 2.551,-2.776 1.573,0 2.479,1.254 2.479,2.817 0,0.072 0,0.154 -0.01,0.277 z m 3.425,-0.637 c -0.082,-0.956 -0.658,-1.789 -1.697,-1.789 -0.905,0 -1.615,0.761 -1.728,1.789 z"
           id="path909" />
      </g>
      <g
         enable-background="new    "
         id="g929">
        <path
           fill="#00263e"
           d="m 65.656,16.287 h 3.291 c 0.916,0 1.615,0.247 2.098,0.73 0.411,0.411 0.617,0.956 0.617,1.646 v 0.021 c 0,1.162 -0.627,1.893 -1.543,2.231 l 1.759,2.571 H 70.027 L 68.484,21.182 H 68.463 67.24 v 2.304 h -1.584 z m 3.188,3.497 c 0.781,0 1.213,-0.401 1.213,-1.019 v -0.021 c 0,-0.688 -0.463,-1.028 -1.245,-1.028 H 67.24 v 2.067 h 1.604 z"
           id="path913" />
        <path
           fill="#00263e"
           d="m 73,17.974 h 1.563 v 5.513 H 73 Z m 1.265,-2.427 1.348,0.586 -1.316,1.234 h -1.193 z"
           id="path915" />
        <path
           fill="#00263e"
           d="M 75.767,20.761 V 20.74 c 0,-1.584 1.275,-2.869 2.993,-2.869 1.697,0 2.972,1.255 2.972,2.849 v 0.021 c 0,1.584 -1.275,2.869 -2.993,2.869 -1.697,-10e-4 -2.972,-1.255 -2.972,-2.849 z m 4.422,0 V 20.74 c 0,-0.812 -0.586,-1.521 -1.45,-1.521 -0.895,0 -1.43,0.679 -1.43,1.501 v 0.021 c 0,0.812 0.586,1.522 1.45,1.522 0.895,0 1.43,-0.679 1.43,-1.502 z"
           id="path917" />
        <path
           fill="#00263e"
           d="m 86.115,16.287 h 1.46 l 3.374,4.433 v -4.433 h 1.562 v 7.199 H 91.163 L 87.677,18.91 v 4.576 h -1.562 z"
           id="path919" />
        <path
           fill="#00263e"
           d="M 93.808,20.761 V 20.74 c 0,-1.573 1.121,-2.869 2.725,-2.869 1.842,0 2.686,1.43 2.686,2.993 0,0.123 -0.012,0.257 -0.021,0.411 h -3.836 c 0.154,0.709 0.648,1.08 1.348,1.08 0.523,0 0.895,-0.165 1.336,-0.566 l 0.896,0.792 c -0.524,0.648 -1.255,1.028 -2.253,1.028 -1.657,0 -2.881,-1.162 -2.881,-2.848 z m 3.887,-0.463 c -0.092,-0.699 -0.504,-1.172 -1.162,-1.172 -0.658,0 -1.068,0.463 -1.192,1.172 z"
           id="path921" />
        <path
           fill="#00263e"
           d="m 100.412,24.576 0.535,-1.172 c 0.576,0.318 1.121,0.504 1.861,0.504 1.07,0 1.574,-0.515 1.574,-1.502 v -0.268 c -0.463,0.566 -0.967,0.896 -1.801,0.896 -1.285,0 -2.447,-0.926 -2.447,-2.571 v -0.021 c 0,-1.646 1.183,-2.571 2.447,-2.571 0.854,0 1.357,0.36 1.779,0.822 v -0.72 h 1.563 v 4.269 c 0,0.977 -0.237,1.707 -0.699,2.17 -0.524,0.524 -1.306,0.74 -2.376,0.74 -0.903,0 -1.737,-0.206 -2.436,-0.576 z m 3.97,-4.113 v -0.021 c 0,-0.751 -0.576,-1.275 -1.348,-1.275 -0.762,0 -1.338,0.524 -1.338,1.275 v 0.021 c 0,0.771 0.566,1.275 1.338,1.275 0.772,0 1.348,-0.524 1.348,-1.275 z"
           id="path923" />
        <path
           fill="#00263e"
           d="m 107.324,17.974 h 1.563 v 1.111 c 0.319,-0.751 0.823,-1.255 1.759,-1.214 v 1.635 h -0.082 c -1.039,0 -1.677,0.617 -1.677,1.944 v 2.036 h -1.563 z"
           id="path925" />
        <path
           fill="#00263e"
           d="M 111.356,20.761 V 20.74 c 0,-1.584 1.274,-2.869 2.993,-2.869 1.696,0 2.972,1.255 2.972,2.849 v 0.021 c 0,1.584 -1.275,2.869 -2.993,2.869 -1.698,-10e-4 -2.972,-1.255 -2.972,-2.849 z m 4.423,0 V 20.74 c 0,-0.812 -0.587,-1.521 -1.451,-1.521 -0.895,0 -1.43,0.679 -1.43,1.501 v 0.021 c 0,0.812 0.587,1.522 1.451,1.522 0.895,0 1.43,-0.679 1.43,-1.502 z"
           id="path927" />
      </g>
      <g
         id="g935">
        <path
           fill="#ed1748"
           d="M 5.424,17.298 C 5.232,16.966 5.188,16.659 5.431,16.296 5.559,16.108 5.461,15.774 5.507,15.514 5.569,15.151 5.674,14.792 5.766,14.434 5.78,14.386 5.827,14.348 5.827,14.302 5.854,13.796 6.2,13.377 6.171,12.841 6.15,12.452 6.251,12.043 6.363,11.663 6.682,10.59 6.484,9.488 6.596,8.404 6.631,8.062 6.777,7.731 6.803,7.39 6.865,6.483 6.932,5.578 6.915,4.669 6.906,4.038 6.41,3.729 5.79,3.827 5.017,3.951 4.33,4.259 3.618,4.583 2.888,4.918 2.243,5.365 1.542,5.728 1.037,5.992 0.337,5.878 0,5.499 0.247,5.275 0.479,5.025 0.745,4.828 1.741,4.096 2.733,3.358 3.758,2.665 4.69,2.034 5.646,1.437 6.616,0.867 6.873,0.721 7.208,0.673 7.512,0.661 7.991,0.64 8.475,0.691 8.956,0.721 9.036,0.725 9.165,0.751 9.184,0.8 9.398,1.388 9.992,1.78 9.98,2.492 9.974,2.994 9.94,3.448 9.749,3.927 9.613,4.255 9.693,4.667 9.66,5.038 9.613,5.532 9.54,6.022 9.497,6.515 9.457,6.982 9.504,7.469 9.399,7.923 9.237,8.62 8.974,9.293 8.77,9.983 c -0.025,0.09 0.076,0.213 0.068,0.317 -0.017,0.289 -0.062,0.58 -0.086,0.871 -0.015,0.211 -0.004,0.422 -0.004,0.695 -0.412,0.119 -0.263,0.555 -0.32,0.903 -0.064,0.368 -0.115,0.742 -0.171,1.114 -0.123,0.832 -0.193,1.678 -0.383,2.502 -0.307,1.367 -0.17,2.732 0.03,4.078 0.143,0.955 0.677,1.752 1.627,2.131 0.242,0.098 0.56,0.014 0.845,0.01 0.203,-0.002 0.408,0 0.612,-0.016 0.076,-0.006 0.158,-0.043 0.224,-0.086 1.096,-0.748 1.94,-1.703 2.508,-2.904 0.077,-0.164 0.158,-0.334 0.264,-0.479 0.769,-1.023 1.144,-2.232 1.653,-3.377 0.396,-0.893 0.949,-1.715 1.404,-2.579 0.155,-0.295 0.305,-0.622 0.334,-0.946 0.082,-0.912 0.588,-1.648 0.979,-2.414 0.64,-1.244 0.784,-2.621 1.219,-3.917 C 19.339,5.132 19.908,4.57 20.047,3.903 20.191,3.231 20.349,2.56 20.487,1.886 20.539,1.642 20.68,1.589 20.914,1.547 21.466,1.442 22.012,1.27 22.56,1.141 22.994,1.039 23.432,0.958 23.969,0.847 23.916,1.52 23.872,2.131 23.824,2.744 23.813,2.864 23.782,2.98 23.781,3.099 23.772,3.68 23.779,4.257 23.765,4.833 c -0.021,1.031 -0.272,2.065 0.115,3.081 0.05,0.133 0.028,0.29 0.021,0.432 -0.033,0.793 -0.102,1.589 -0.11,2.384 -0.01,0.667 0.051,1.332 0.081,1.999 0,0.035 0.015,0.071 0.012,0.107 -0.024,0.402 -0.204,0.764 0.015,1.211 0.199,0.4 0.169,0.918 0.229,1.387 0.071,0.564 0.07,1.146 0.21,1.693 0.182,0.701 0.074,1.465 0.558,2.104 0.829,1.102 1.107,2.488 1.86,3.629 0.158,0.24 0.386,0.455 0.627,0.619 0.604,0.408 1.262,0.576 1.993,0.33 0.254,-0.086 0.55,-0.186 0.752,0.186 -0.253,0.34 -0.477,0.707 -0.969,0.826 -0.598,0.145 -1.172,0.408 -1.774,0.5 -0.406,0.062 -0.864,-0.021 -1.268,-0.148 -0.509,-0.154 -0.967,-0.393 -1.355,-0.838 -0.35,-0.396 -0.943,-0.572 -1.417,-0.861 -0.139,-0.09 -0.273,-0.221 -0.336,-0.359 -0.375,-0.906 -0.952,-1.652 -1.606,-2.365 -0.13,-0.143 -0.187,-0.348 -0.273,-0.527 -0.019,-0.029 -0.015,-0.068 -0.025,-0.102 -0.414,-0.918 -0.628,-1.906 -0.976,-2.852 -0.12,-0.324 0.019,-0.744 0.038,-1.117 0.005,-0.078 0.037,-0.16 0.022,-0.234 -0.165,-1.195 -0.337,-2.389 -0.505,-3.584 -0.007,-0.045 -0.012,-0.09 -0.012,-0.09 -0.507,0.763 -1.027,1.542 -1.534,2.33 -0.062,0.101 -0.062,0.229 -0.09,0.347 -0.021,0.078 -0.039,0.211 -0.087,0.224 -0.368,0.099 -0.298,0.381 -0.303,0.642 -0.002,0.102 -0.021,0.221 -0.071,0.309 -0.26,0.478 -0.543,0.943 -0.794,1.421 -0.193,0.362 -0.391,0.729 -0.527,1.112 -0.355,1.002 -0.977,1.851 -1.606,2.672 -0.649,0.843 -1.417,1.597 -2.133,2.386 -0.018,0.019 -0.031,0.039 -0.053,0.051 -1.032,0.547 -1.906,1.438 -3.188,1.431 -0.131,0 -0.266,0.032 -0.388,0.078 C 8.641,25.35 8.439,25.298 8.238,25.111 8.164,25.046 8.016,25.051 7.903,25.035 7.821,25.021 7.732,25.033 7.656,25.005 7.226,24.845 6.786,24.701 6.375,24.499 5.964,24.298 5.64,23.99 5.546,23.507 5.525,23.403 5.505,23.259 5.432,23.21 4.863,22.816 4.956,22.177 4.834,21.626 4.774,21.355 4.789,21.064 4.705,20.8 4.517,20.208 4.571,19.636 4.759,19.056 c 0.016,-0.03 0.015,-0.079 0.035,-0.1 0.361,-0.302 0.188,-0.642 0.104,-0.99 -0.021,-0.092 0.025,-0.229 0.094,-0.304 0.11,-0.135 0.261,-0.224 0.432,-0.364 z"
           id="path931" />
        <path
           fill="#ed1748"
           d="m 34.384,17.236 c -1.921,0 -3.448,-1.508 -3.442,-3.391 0.005,-1.913 1.536,-3.415 3.476,-3.41 1.896,0.003 3.445,1.529 3.45,3.405 0.005,1.894 -1.536,3.396 -3.484,3.396 z"
           id="path933" />
      </g>
    </g>
    <text
       xml:space="preserve"
       style="font-size:17.2963px;line-height:1.25;font-family:'D-DIN Condensed';-inkscape-font-specification:'D-DIN Condensed, Normal';letter-spacing:0px;word-spacing:0px;stroke-width:0.43241"
       x="20.393581"
       y="33.224781"
       id="text984"><tspan
         sodipodi:role="line"
         id="tspan982"
         x="20.393581"
         y="33.224781"
         style="stroke-width:0.43241">Ingenieria en Computación</tspan><tspan
         sodipodi:role="line"
         x="20.393581"
         y="54.845203"
         style="stroke-width:0.43241"
         id="tspan986">Sede Andina</tspan></text>
    <text
       xml:space="preserve"
       style="font-size:30.8647px;line-height:1.25;font-family:'D-DIN Condensed';-inkscape-font-specification:'D-DIN Condensed, Normal';letter-spacing:0px;word-spacing:0px;stroke-width:0.77162;"
       x="20.766457"
       y="95.286522"
       id="text990"><tspan
         sodipodi:role="line"
         id="tspan988"
         x="20.766457"
         y="95.286522"
         style="font-style:normal;font-variant:normal;font-weight:normal;font-stretch:normal;font-size:28.2222px;font-family:'D-DIN Condensed';-inkscape-font-specification:'D-DIN Condensed, Normal';font-variant-ligatures:normal;font-variant-caps:normal;font-variant-numeric:normal;font-variant-east-asian:normal;stroke-width:0.77162">Apuntes Introducción IngCom</tspan></text>
    <rect
       style="fill:url(#linearGradient887);fill-opacity:1;stroke:none;stroke-width:1.065;stroke-miterlimit:1.7"
       id="rect875"
       width="338.66666"
       height="169.33333"
       x="0"
       y="0"
       ry="0" />
  </g>
</svg>
