<?xml version="1.0" encoding="UTF-8"?>
<!-- Generator: Adobe Illustrator 16.0.0, SVG Export Plug-In . SVG Version: 6.00 Build 0)  -->
<!DOCTYPE svg PUBLIC "-//W3C//DTD SVG 1.1//EN" "http://www.w3.org/Graphics/SVG/1.1/DTD/svg11.dtd">
<svg version="1.1" id="Layer_1" xmlns="http://www.w3.org/2000/svg" xmlns:xlink="http://www.w3.org/1999/xlink" x="0px" y="0px" width="220px" height="21.01px" viewBox="0 0 220 21.01" enable-background="new 0 0 220 21.01" xml:space="preserve">
<rect x="256.893" y="117.779" fill="#5E5E5E" width="1.319" height="27.697"/>
<g>
	<g>
		<path fill="#EB2242" d="M17.221,12.117c0,3.007-0.683,4.784-2.05,6.151c-1.367,1.366-3.554,2.214-6.561,2.214    s-5.193-0.848-6.561-2.214C0.683,16.901,0,15.125,0,12.117V1.32h6.205v11.07c0,1.121,0.219,1.64,0.629,2.051    c0.409,0.41,0.956,0.683,1.776,0.683s1.367-0.273,1.776-0.683c0.41-0.411,0.603-0.957,0.603-2.051V1.32h6.231V12.117z"/>
		<path fill="#EB2242" d="M40.095,20.181h-6.424l-5.74-10.524c0,0,0.137,2.051,0.137,3.417v7.107h-6.014V1.32h6.697l5.467,10.523    c0,0-0.137-2.05-0.137-3.417V1.32h6.014V20.181z"/>
		<path fill="#EB2242" d="M62.147,20.181h-7.106l-3.008-6.287h-0.792v6.287h-6.178V1.32h8.2c2.323,0,4.101,0.41,5.467,1.366    c1.367,0.957,2.324,2.597,2.324,4.647c0,3.827-2.324,5.194-3.144,5.686L62.147,20.181z M54.139,6.322    c-0.273-0.218-0.684-0.355-1.367-0.355h-1.558v3.281h1.558c0.684,0,1.121-0.136,1.367-0.328c0.301-0.219,0.684-0.493,0.684-1.312    C54.822,6.787,54.412,6.513,54.139,6.322z"/>
		<path fill="#EB2242" d="M83.382,20.181h-6.424L71.217,9.657c0,0,0.137,2.051,0.137,3.417v7.107h-6.013V1.32h6.697l5.467,10.523    c0,0-0.137-2.05-0.137-3.417V1.32h6.014V20.181z"/>
	</g>
	<g>
		<path fill="#1B2437" d="M115.086,5.848V1.873h0.772v3.926c0,1.475,0.781,2.306,2.09,2.306c1.26,0,2.061-0.762,2.061-2.256V1.873    h0.771v3.916c0,1.993-1.143,3.028-2.852,3.028C116.239,8.817,115.086,7.782,115.086,5.848z"/>
		<path fill="#1B2437" d="M122.475,3.661h0.752v0.878c0.332-0.547,0.859-0.986,1.729-0.986c1.221,0,1.934,0.82,1.934,2.022v3.135    h-0.752V5.761c0-0.938-0.508-1.525-1.396-1.525c-0.869,0-1.514,0.636-1.514,1.583v2.891h-0.752V3.661z"/>
		<path fill="#1B2437" d="M128.506,1.726h0.859v0.831h-0.859V1.726z M128.555,3.661h0.752v5.049h-0.752V3.661z"/>
		<path fill="#1B2437" d="M130.555,3.661h0.831l1.699,4.189l1.71-4.189h0.81l-2.197,5.088h-0.664L130.555,3.661z"/>
		<path fill="#1B2437" d="M139.01,8.172c0.693,0,1.182-0.283,1.592-0.713l0.469,0.42c-0.508,0.566-1.123,0.947-2.08,0.947    c-1.387,0-2.521-1.064-2.521-2.637c0-1.465,1.026-2.637,2.423-2.637c1.494,0,2.354,1.192,2.354,2.677c0,0.067,0,0.146-0.01,0.263    h-4.005C137.34,7.558,138.121,8.172,139.01,8.172z M140.484,5.887c-0.088-0.918-0.615-1.7-1.611-1.7    c-0.869,0-1.533,0.723-1.642,1.7H140.484z"/>
		<path fill="#1B2437" d="M142.561,3.661h0.752v1.318c0.371-0.84,1.104-1.446,2.061-1.406v0.81h-0.059    c-1.104,0-2.002,0.791-2.002,2.315v2.011h-0.752V3.661z"/>
		<path fill="#1B2437" d="M146.094,8.064l0.381-0.536c0.547,0.41,1.152,0.644,1.748,0.644c0.605,0,1.045-0.312,1.045-0.8v-0.02    c0-0.508-0.596-0.704-1.26-0.888c-0.791-0.225-1.67-0.499-1.67-1.427v-0.02c0-0.869,0.723-1.444,1.719-1.444    c0.615,0,1.299,0.214,1.816,0.557l-0.342,0.566c-0.469-0.303-1.006-0.488-1.494-0.488c-0.597,0-0.977,0.312-0.977,0.731v0.02    c0,0.479,0.625,0.665,1.299,0.869c0.781,0.234,1.621,0.538,1.621,1.446v0.02c0,0.957-0.791,1.514-1.797,1.514    C147.461,8.808,146.659,8.524,146.094,8.064z"/>
		<path fill="#1B2437" d="M151.393,1.726h0.859v0.831h-0.859V1.726z M151.442,3.661h0.751v5.049h-0.751V3.661z"/>
		<path fill="#1B2437" d="M153.647,6.2V6.18c0-1.65,1.201-2.627,2.412-2.627c0.938,0,1.544,0.508,1.935,1.074V1.58h0.752v7.13    h-0.752V7.694c-0.411,0.605-1.007,1.124-1.935,1.124C154.849,8.817,153.647,7.86,153.647,6.2z M158.023,6.189V6.17    c0-1.163-0.889-1.944-1.826-1.944c-0.978,0-1.778,0.723-1.778,1.944v0.019c0,1.192,0.82,1.953,1.778,1.953    C157.135,8.143,158.023,7.352,158.023,6.189z"/>
		<path fill="#1B2437" d="M160.04,7.245v-0.02c0-1.084,0.879-1.65,2.158-1.65c0.645,0,1.094,0.088,1.543,0.214V5.633    c0-0.898-0.547-1.367-1.494-1.367c-0.596,0-1.064,0.146-1.533,0.361l-0.225-0.614c0.557-0.254,1.094-0.43,1.836-0.43    c0.713,0,1.27,0.195,1.631,0.556c0.353,0.352,0.528,0.84,0.528,1.485v3.086h-0.743V7.958c-0.352,0.449-0.928,0.859-1.816,0.859    C160.978,8.817,160.04,8.28,160.04,7.245z M163.751,6.854V6.386c-0.37-0.108-0.859-0.215-1.475-0.215    c-0.938,0-1.475,0.41-1.475,1.016v0.019c0,0.636,0.586,1.006,1.27,1.006C162.999,8.211,163.751,7.655,163.751,6.854z"/>
		<path fill="#1B2437" d="M165.779,6.2V6.18c0-1.65,1.201-2.627,2.412-2.627c0.938,0,1.543,0.508,1.934,1.074V1.58h0.752v7.13    h-0.752V7.694c-0.41,0.605-1.006,1.124-1.934,1.124C166.98,8.817,165.779,7.86,165.779,6.2z M170.154,6.189V6.17    c0-1.163-0.889-1.944-1.826-1.944c-0.977,0-1.777,0.723-1.777,1.944v0.019c0,1.192,0.82,1.953,1.777,1.953    C169.266,8.143,170.154,7.352,170.154,6.189z"/>
		<path fill="#1B2437" d="M175.606,1.873h0.724l4.307,5.479V1.873h0.752v6.836h-0.615l-4.414-5.605v5.605h-0.753V1.873z"/>
		<path fill="#1B2437" d="M182.81,7.245v-0.02c0-1.084,0.88-1.65,2.158-1.65c0.646,0,1.095,0.088,1.544,0.214V5.633    c0-0.898-0.547-1.367-1.494-1.367c-0.597,0-1.065,0.146-1.534,0.361l-0.225-0.614c0.557-0.254,1.095-0.43,1.837-0.43    c0.713,0,1.269,0.195,1.631,0.556c0.352,0.352,0.527,0.84,0.527,1.485v3.086h-0.742V7.958c-0.352,0.449-0.929,0.859-1.817,0.859    C183.747,8.817,182.81,8.28,182.81,7.245z M186.521,6.854V6.386c-0.37-0.108-0.859-0.215-1.475-0.215    c-0.938,0-1.475,0.41-1.475,1.016v0.019c0,0.636,0.587,1.006,1.27,1.006C185.77,8.211,186.521,7.655,186.521,6.854z"/>
		<path fill="#1B2437" d="M188.529,6.209v-0.02c0-1.426,1.113-2.637,2.588-2.637c0.957,0,1.553,0.4,2.021,0.898l-0.497,0.528    c-0.401-0.42-0.851-0.762-1.534-0.762c-1.025,0-1.807,0.869-1.807,1.954v0.019c0,1.094,0.801,1.964,1.855,1.964    c0.645,0,1.143-0.323,1.543-0.752l0.479,0.449c-0.508,0.567-1.113,0.977-2.061,0.977C189.643,8.827,188.529,7.625,188.529,6.209z"/>
		<path fill="#1B2437" d="M194.434,1.726h0.86v0.831h-0.86V1.726z M194.483,3.661h0.752v5.049h-0.752V3.661z"/>
		<path fill="#1B2437" d="M196.669,6.209v-0.02c0-1.426,1.113-2.637,2.637-2.637c1.514,0,2.628,1.192,2.628,2.618v0.019    c0,1.426-1.123,2.637-2.647,2.637C197.772,8.827,196.669,7.636,196.669,6.209z M201.162,6.209v-0.02    c0-1.083-0.812-1.973-1.876-1.973c-1.094,0-1.846,0.889-1.846,1.954v0.019c0,1.084,0.801,1.964,1.865,1.964    C200.399,8.153,201.162,7.274,201.162,6.209z"/>
		<path fill="#1B2437" d="M203.286,3.661h0.752v0.878c0.332-0.547,0.859-0.986,1.729-0.986c1.221,0,1.935,0.82,1.935,2.022v3.135    h-0.753V5.761c0-0.938-0.508-1.525-1.396-1.525c-0.869,0-1.514,0.636-1.514,1.583v2.891h-0.752V3.661z"/>
		<path fill="#1B2437" d="M208.917,7.245v-0.02c0-1.084,0.88-1.65,2.159-1.65c0.645,0,1.094,0.088,1.543,0.214V5.633    c0-0.898-0.547-1.367-1.494-1.367c-0.596,0-1.064,0.146-1.534,0.361l-0.224-0.614c0.556-0.254,1.094-0.43,1.836-0.43    c0.713,0,1.27,0.195,1.631,0.556c0.352,0.352,0.527,0.84,0.527,1.485v3.086h-0.742V7.958c-0.352,0.449-0.929,0.859-1.816,0.859    C209.854,8.817,208.917,8.28,208.917,7.245z M212.629,6.854V6.386c-0.371-0.108-0.86-0.215-1.475-0.215    c-0.938,0-1.475,0.41-1.475,1.016v0.019c0,0.636,0.586,1.006,1.269,1.006C211.877,8.211,212.629,7.655,212.629,6.854z"/>
		<path fill="#1B2437" d="M215.018,1.58h0.752v7.13h-0.752V1.58z"/>
		<path fill="#1B2437" d="M114.773,16.662v-0.02c0-1.65,1.202-2.627,2.413-2.627c0.938,0,1.543,0.508,1.934,1.074v-3.047h0.752v7.13    h-0.752v-1.016c-0.41,0.605-1.006,1.124-1.934,1.124C115.976,19.28,114.773,18.322,114.773,16.662z M119.149,16.652v-0.019    c0-1.163-0.889-1.944-1.827-1.944c-0.977,0-1.776,0.723-1.776,1.944v0.019c0,1.192,0.82,1.953,1.776,1.953    C118.261,18.605,119.149,17.814,119.149,16.652z"/>
		<path fill="#1B2437" d="M123.774,18.635c0.692,0,1.182-0.283,1.592-0.713l0.469,0.42c-0.508,0.566-1.123,0.947-2.08,0.947    c-1.388,0-2.521-1.064-2.521-2.638c0-1.464,1.026-2.637,2.423-2.637c1.494,0,2.354,1.192,2.354,2.677c0,0.067,0,0.146-0.01,0.263    h-4.005C122.104,18.02,122.886,18.635,123.774,18.635z M125.249,16.35c-0.088-0.918-0.615-1.7-1.611-1.7    c-0.869,0-1.533,0.723-1.642,1.7H125.249z"/>
		<path fill="#1B2437" d="M130.233,12.335h3.126c0.869,0,1.543,0.244,1.992,0.693c0.381,0.381,0.586,0.918,0.586,1.563v0.019    c0,1.104-0.596,1.797-1.465,2.119l1.67,2.442h-1.758l-1.466-2.188h-1.182v2.188h-1.504V12.335z M133.262,15.656    c0.732,0,1.152-0.391,1.152-0.967V14.67c0-0.645-0.449-0.977-1.183-0.977h-1.494v1.963H133.262z"/>
		<path fill="#1B2437" d="M137.202,13.937h1.484v5.235h-1.484V13.937z M138.442,11.632l1.279,0.556l-1.27,1.172h-1.094    L138.442,11.632z"/>
		<path fill="#1B2437" d="M139.827,16.584v-0.02c0-1.503,1.211-2.725,2.842-2.725c1.622,0,2.823,1.202,2.823,2.706v0.019    c0,1.505-1.212,2.726-2.843,2.726C141.028,19.29,139.827,18.088,139.827,16.584z M144.026,16.584v-0.02    c0-0.771-0.556-1.445-1.377-1.445c-0.85,0-1.357,0.655-1.357,1.426v0.019c0,0.772,0.557,1.446,1.377,1.446    C143.519,18.01,144.026,17.355,144.026,16.584z"/>
		<path fill="#1B2437" d="M149.646,12.335h1.388l3.203,4.209v-4.209h1.484v6.837h-1.279l-3.311-4.346v4.346h-1.485V12.335z"/>
		<path fill="#1B2437" d="M156.945,16.584v-0.02c0-1.494,1.064-2.725,2.589-2.725c1.748,0,2.549,1.358,2.549,2.842    c0,0.117-0.01,0.254-0.02,0.391h-3.643c0.146,0.673,0.615,1.026,1.279,1.026c0.498,0,0.859-0.156,1.27-0.537l0.85,0.751    c-0.488,0.605-1.191,0.977-2.139,0.977C158.108,19.29,156.945,18.186,156.945,16.584z M160.638,16.145    c-0.088-0.665-0.479-1.114-1.104-1.114c-0.615,0-1.017,0.439-1.134,1.114H160.638z"/>
		<path fill="#1B2437" d="M163.212,20.208l0.508-1.114c0.537,0.303,1.075,0.478,1.768,0.478c1.017,0,1.495-0.488,1.495-1.425v-0.254    c-0.439,0.528-0.919,0.85-1.71,0.85c-1.22,0-2.324-0.889-2.324-2.441v-0.02c0-1.563,1.123-2.442,2.324-2.442    c0.812,0,1.29,0.342,1.689,0.781v-0.683h1.485v4.054c0,0.938-0.225,1.621-0.664,2.061c-0.488,0.487-1.24,0.703-2.257,0.703    C164.678,20.755,163.876,20.559,163.212,20.208z M166.982,16.301v-0.02c0-0.713-0.557-1.211-1.28-1.211    c-0.723,0-1.27,0.498-1.27,1.211v0.02c0,0.722,0.547,1.21,1.27,1.21C166.426,17.511,166.982,17.014,166.982,16.301z"/>
		<path fill="#1B2437" d="M169.771,13.937h1.484v1.055c0.303-0.722,0.791-1.191,1.671-1.153v1.553h-0.078    c-0.987,0-1.593,0.597-1.593,1.847v1.934h-1.484V13.937z"/>
		<path fill="#1B2437" d="M173.596,16.584v-0.02c0-1.503,1.212-2.725,2.843-2.725c1.621,0,2.822,1.202,2.822,2.706v0.019    c0,1.505-1.211,2.726-2.842,2.726C174.798,19.29,173.596,18.088,173.596,16.584z M177.796,16.584v-0.02    c0-0.771-0.557-1.445-1.377-1.445c-0.85,0-1.357,0.655-1.357,1.426v0.019c0,0.772,0.557,1.446,1.377,1.446    C177.288,18.01,177.796,17.355,177.796,16.584z"/>
	</g>
	<rect x="99.293" y="0.255" opacity="0.3" fill="#1B2437" width="0.976" height="20.496"/>
</g>
</svg>