<?xml version="1.0" encoding="UTF-8" standalone="no"?>
<!-- Created with Inkscape (http://www.inkscape.org/) -->

<svg
   width="9.1023598mm"
   height="10.056976mm"
   viewBox="0 0 34.40262 38.01062"
   version="1.1"
   id="svg5"
   inkscape:version="1.1.2 (b8e25be833, 2022-02-05)"
   sodipodi:docname="U.svg"
   xmlns:inkscape="http://www.inkscape.org/namespaces/inkscape"
   xmlns:sodipodi="http://sodipodi.sourceforge.net/DTD/sodipodi-0.dtd"
   xmlns="http://www.w3.org/2000/svg"
   xmlns:svg="http://www.w3.org/2000/svg">
  <sodipodi:namedview
     id="namedview7"
     pagecolor="#ffffff"
     bordercolor="#666666"
     borderopacity="1.0"
     inkscape:pageshadow="2"
     inkscape:pageopacity="0.0"
     inkscape:pagecheckerboard="0"
     inkscape:document-units="mm"
     showgrid="false"
     fit-margin-top="0.4"
     fit-margin-left="0.4"
     fit-margin-right="0.4"
     fit-margin-bottom="0.4"
     lock-margins="true"
     inkscape:zoom="3.8164141"
     inkscape:cx="35.504533"
     inkscape:cy="22.01019"
     inkscape:window-width="1920"
     inkscape:window-height="1017"
     inkscape:window-x="-8"
     inkscape:window-y="-8"
     inkscape:window-maximized="1"
     inkscape:current-layer="layer1" />
  <defs
     id="defs2" />
  <g
     inkscape:label="Layer 1"
     inkscape:groupmode="layer"
     id="layer1"
     transform="translate(-173.1687,-271.50693)">
    <path
       fill="#ed1748"
       d="m 206.05951,292.73374 c 0,5.49 -1.245,8.734 -3.735,11.23 -2.49,2.495 -6.475,4.042 -11.954,4.042 -5.479,0 -9.464,-1.547 -11.954,-4.042 -2.49,-2.496 -3.736,-5.74 -3.736,-11.23 v -19.715 h 11.306 v 20.214 c 0,2.046 0.399,2.995 1.146,3.743 0.747,0.749 1.743,1.248 3.238,1.248 1.494,0 2.49,-0.499 3.237,-1.248 0.748,-0.749 1.096,-1.747 1.096,-3.743 v -20.214 h 11.355 v 19.715 z"
       id="path1177"
       inkscape:export-filename="C:\Users\tincho\dev\intro-ingcom\archivos\recursos\path1177.png"
       inkscape:export-xdpi="123.47443"
       inkscape:export-ydpi="123.47443" />
  </g>
</svg>
