<?xml version="1.0" encoding="UTF-8"?>
<!-- Generator: Adobe Illustrator 16.0.0, SVG Export Plug-In . SVG Version: 6.00 Build 0)  -->
<!DOCTYPE svg PUBLIC "-//W3C//DTD SVG 1.1//EN" "http://www.w3.org/Graphics/SVG/1.1/DTD/svg11.dtd">
<svg version="1.1" id="Layer_1" xmlns="http://www.w3.org/2000/svg" xmlns:xlink="http://www.w3.org/1999/xlink" x="0px" y="0px" width="185.42px" height="85px" viewBox="0 0 185.42 85" enable-background="new 0 0 185.42 85" xml:space="preserve">
<g>
	<g>
		<path fill="#ED1748" d="M32.573,21.326c0,5.49-1.245,8.734-3.735,11.23c-2.49,2.495-6.475,4.042-11.954,4.042    S7.42,35.051,4.93,32.556c-2.49-2.496-3.736-5.74-3.736-11.23V1.611H12.5v20.214c0,2.046,0.399,2.995,1.146,3.743    c0.747,0.749,1.743,1.248,3.238,1.248c1.494,0,2.49-0.499,3.237-1.248c0.748-0.749,1.096-1.747,1.096-3.743V1.611h11.355V21.326z"/>
		<path fill="#ED1748" d="M71.422,36.05H59.717L49.257,16.834c0,0,0.249,3.743,0.249,6.238V36.05H38.549V1.611h12.202l9.962,19.215    c0,0-0.249-3.743-0.249-6.239V1.611h10.958V36.05z"/>
		<path fill="#ED1748" d="M108.776,36.05H95.825L90.347,24.57h-1.445V36.05H77.646V1.611h14.943c4.232,0,7.47,0.749,9.96,2.496    c2.49,1.747,4.234,4.742,4.234,8.484c0,6.988-4.234,9.483-5.729,10.382L108.776,36.05z M94.183,10.745    c-0.498-0.399-1.246-0.649-2.491-0.649h-2.839v5.989h2.839c1.245,0,2.042-0.25,2.491-0.599c0.549-0.4,1.246-0.899,1.246-2.396    S94.681,11.095,94.183,10.745z"/>
		<path fill="#ED1748" d="M144.636,36.05h-11.705l-10.459-19.215c0,0,0.25,3.743,0.25,6.238V36.05h-10.959V1.611h12.203    l9.961,19.215c0,0-0.248-3.743-0.248-6.239V1.611h10.957V36.05z"/>
	</g>
	<g>
		<path fill="#FFFFFF" d="M1.444,60.445v-5.643h1.095v5.572c0,2.107,1.095,3.272,2.966,3.272c1.789,0,2.926-1.082,2.926-3.202    v-5.643h1.094v5.56c0,2.841-1.622,4.297-4.047,4.297C3.08,64.659,1.444,63.188,1.444,60.445z"/>
		<path fill="#FFFFFF" d="M11.938,57.34h1.068v1.248c0.484-0.776,1.219-1.399,2.454-1.399c1.718,0,2.744,1.164,2.744,2.867v4.45    h-1.067v-4.187c0-1.329-0.707-2.161-1.982-2.161c-1.233,0-2.148,0.901-2.148,2.245v4.103h-1.068V57.34z"/>
		<path fill="#FFFFFF" d="M20.506,54.597h1.22v1.178h-1.22V54.597z M20.575,57.34h1.068v7.166h-1.068V57.34z"/>
		<path fill="#FFFFFF" d="M23.417,57.34h1.177l2.413,5.946l2.426-5.946h1.151l-3.12,7.222h-0.942L23.417,57.34z"/>
		<path fill="#FFFFFF" d="M32.9,61.36c0.152,1.511,1.261,2.384,2.522,2.384c0.998,0,1.663-0.403,2.259-1.012l0.666,0.596    c-0.721,0.818-1.58,1.345-2.953,1.345c-1.954,0-3.576-1.511-3.576-3.742c0-2.08,1.441-3.742,3.438-3.742    c2.121,0,3.34,1.69,3.34,3.797c0,0.098,0,0.209-0.013,0.375H32.9z M37.516,60.501c-0.111-1.29-0.887-2.412-2.287-2.412    c-1.22,0-2.177,1.025-2.329,2.412H37.516z"/>
		<path fill="#FFFFFF" d="M40.469,57.34h1.068v1.871c0.526-1.191,1.566-2.037,2.924-1.996v1.15h-0.083    c-1.566,0-2.841,1.124-2.841,3.285v2.855h-1.068V57.34z"/>
		<path fill="#FFFFFF" d="M45.488,63.591l0.541-0.762c0.776,0.596,1.635,0.915,2.481,0.915c0.873,0,1.483-0.43,1.483-1.136V62.58    c0-0.707-0.845-0.999-1.788-1.262c-1.108-0.333-2.37-0.693-2.37-2.023v-0.027c0-1.233,1.026-2.053,2.44-2.053    c0.887,0,1.843,0.305,2.579,0.79l-0.486,0.806c-0.666-0.431-1.414-0.694-2.121-0.694c-0.846,0-1.386,0.443-1.386,1.039v0.028    c0,0.679,0.887,0.942,1.844,1.233c1.109,0.334,2.301,0.764,2.301,2.052v0.027c0,1.358-1.123,2.149-2.551,2.149    C47.415,64.646,46.306,64.243,45.488,63.591z"/>
		<path fill="#FFFFFF" d="M53.016,54.597h1.22v1.178h-1.22V54.597z M53.084,57.34h1.068v7.166h-1.068V57.34z"/>
		<path fill="#FFFFFF" d="M56.218,60.943v-0.026c0-2.329,1.705-3.729,3.423-3.729c1.331,0,2.19,0.707,2.745,1.523v-4.325h1.067    v10.119h-1.067v-1.441c-0.596,0.859-1.414,1.595-2.745,1.595C57.923,64.659,56.218,63.302,56.218,60.943z M62.429,60.931v-0.029    c0-1.648-1.263-2.757-2.593-2.757c-1.386,0-2.523,1.026-2.523,2.757v0.029c0,1.704,1.15,2.771,2.523,2.771    C61.166,63.702,62.429,62.58,62.429,60.931z"/>
		<path fill="#FFFFFF" d="M65.299,62.427v-0.027c0-1.538,1.247-2.344,3.063-2.344c0.928,0,1.539,0.126,2.189,0.307v-0.222    c0-1.275-0.775-1.94-2.121-1.94c-0.845,0-1.51,0.194-2.175,0.512l-0.319-0.873c0.79-0.374,1.553-0.61,2.606-0.61    c1.012,0,1.789,0.265,2.314,0.791c0.5,0.498,0.749,1.206,0.749,2.106v4.38h-1.054v-1.067c-0.499,0.652-1.316,1.221-2.578,1.221    C66.629,64.659,65.299,63.91,65.299,62.427z M70.566,61.873v-0.666c-0.54-0.152-1.206-0.306-2.093-0.306    c-1.33,0-2.093,0.569-2.093,1.442v0.028c0,0.9,0.846,1.427,1.802,1.427C69.499,63.799,70.566,63.022,70.566,61.873z"/>
		<path fill="#FFFFFF" d="M73.451,60.943v-0.026c0-2.329,1.705-3.729,3.423-3.729c1.331,0,2.191,0.707,2.746,1.523v-4.325h1.067    v10.119h-1.067v-1.441c-0.596,0.859-1.415,1.595-2.746,1.595C75.155,64.659,73.451,63.302,73.451,60.943z M79.66,60.931v-0.029    c0-1.648-1.261-2.757-2.591-2.757c-1.387,0-2.522,1.026-2.522,2.757v0.029c0,1.704,1.15,2.771,2.522,2.771    C78.399,63.702,79.66,62.58,79.66,60.931z"/>
		<path fill="#FFFFFF" d="M87.41,54.803h1.026l6.114,7.777v-7.777h1.068v9.703h-0.875l-6.265-7.955v7.955H87.41V54.803z"/>
		<path fill="#FFFFFF" d="M97.642,62.427v-0.027c0-1.538,1.248-2.344,3.064-2.344c0.93,0,1.539,0.126,2.189,0.307v-0.222    c0-1.275-0.775-1.94-2.121-1.94c-0.844,0-1.51,0.194-2.176,0.512l-0.318-0.873c0.789-0.374,1.553-0.61,2.605-0.61    c1.012,0,1.787,0.265,2.314,0.791c0.5,0.498,0.748,1.206,0.748,2.106v4.38h-1.053v-1.067c-0.5,0.652-1.316,1.221-2.578,1.221    C98.974,64.659,97.642,63.91,97.642,62.427z M102.909,61.873v-0.666c-0.541-0.152-1.205-0.306-2.094-0.306    c-1.33,0-2.092,0.569-2.092,1.442v0.028c0,0.9,0.846,1.427,1.803,1.427C101.841,63.799,102.909,63.022,102.909,61.873z"/>
		<path fill="#FFFFFF" d="M105.767,60.958v-0.027c0-2.038,1.566-3.742,3.672-3.742c1.359,0,2.191,0.554,2.871,1.275l-0.709,0.747    c-0.566-0.596-1.191-1.081-2.176-1.081c-1.453,0-2.564,1.22-2.564,2.771v0.029c0,1.552,1.139,2.786,2.635,2.786    c0.93,0,1.623-0.458,2.189-1.067l0.68,0.637c-0.721,0.817-1.58,1.387-2.926,1.387C107.333,64.673,105.767,62.968,105.767,60.958z"/>
		<path fill="#FFFFFF" d="M114.155,54.597h1.219v1.178h-1.219V54.597z M114.224,57.34h1.066v7.166h-1.066V57.34z"/>
		<path fill="#FFFFFF" d="M117.329,60.958v-0.027c0-2.038,1.566-3.742,3.742-3.742c2.162,0,3.729,1.69,3.729,3.713v0.029    c0,2.037-1.594,3.742-3.756,3.742C118.896,64.673,117.329,62.982,117.329,60.958z M123.704,60.958v-0.027    c0-1.539-1.15-2.801-2.66-2.801c-1.553,0-2.621,1.262-2.621,2.771v0.029c0,1.538,1.137,2.786,2.648,2.786    C122.624,63.717,123.704,62.456,123.704,60.958z"/>
		<path fill="#FFFFFF" d="M126.728,57.34h1.068v1.248c0.484-0.776,1.219-1.399,2.453-1.399c1.719,0,2.744,1.164,2.744,2.867v4.45    h-1.066v-4.187c0-1.329-0.709-2.161-1.982-2.161c-1.234,0-2.148,0.901-2.148,2.245v4.103h-1.068V57.34z"/>
		<path fill="#FFFFFF" d="M134.728,62.427v-0.027c0-1.538,1.246-2.344,3.064-2.344c0.928,0,1.537,0.126,2.189,0.307v-0.222    c0-1.275-0.777-1.94-2.121-1.94c-0.846,0-1.51,0.194-2.178,0.512l-0.318-0.873c0.791-0.374,1.553-0.61,2.607-0.61    c1.012,0,1.787,0.265,2.314,0.791c0.498,0.498,0.748,1.206,0.748,2.106v4.38h-1.053v-1.067c-0.5,0.652-1.316,1.221-2.58,1.221    C136.058,64.659,134.728,63.91,134.728,62.427z M139.995,61.873v-0.666c-0.541-0.152-1.205-0.306-2.094-0.306    c-1.332,0-2.094,0.569-2.094,1.442v0.028c0,0.9,0.846,1.427,1.803,1.427C138.927,63.799,139.995,63.022,139.995,61.873z"/>
		<path fill="#FFFFFF" d="M143.392,54.387h1.068v10.119h-1.068V54.387z"/>
		<path fill="#FFFFFF" d="M1,77.581v-0.028c0-2.329,1.705-3.729,3.424-3.729c1.331,0,2.19,0.707,2.745,1.525v-4.324h1.067v10.118    H7.168v-1.441c-0.596,0.86-1.414,1.594-2.745,1.594C2.705,81.295,1,79.937,1,77.581z M7.209,77.566v-0.027    c0-1.65-1.261-2.76-2.592-2.76c-1.386,0-2.522,1.026-2.522,2.76v0.027c0,1.705,1.15,2.772,2.522,2.772    C5.949,80.339,7.209,79.217,7.209,77.566z"/>
		<path fill="#FFFFFF" d="M11.259,77.996c0.153,1.511,1.261,2.384,2.523,2.384c0.998,0,1.663-0.4,2.259-1.012l0.665,0.597    c-0.72,0.817-1.58,1.344-2.952,1.344c-1.954,0-3.576-1.51-3.576-3.742c0-2.078,1.441-3.743,3.438-3.743    c2.121,0,3.34,1.692,3.34,3.799c0,0.097,0,0.208-0.013,0.374H11.259z M15.875,77.137c-0.11-1.289-0.887-2.411-2.287-2.411    c-1.22,0-2.176,1.025-2.329,2.411H15.875z"/>
		<path fill="#FFFFFF" d="M22.96,71.439h4.435c1.234,0,2.176,0.333,2.828,0.984c0.555,0.554,0.832,1.29,0.832,2.219v0.026    c0,1.566-0.845,2.551-2.079,3.009l2.37,3.465h-2.495l-2.079-3.104h-0.028h-1.649v3.104H22.96V71.439z M27.256,76.153    c1.054,0,1.636-0.541,1.636-1.374v-0.026c0-0.93-0.624-1.386-1.677-1.386h-2.121v2.786H27.256z"/>
		<path fill="#FFFFFF" d="M32.858,73.714h2.107v7.429h-2.107V73.714z M34.563,70.442l1.816,0.789l-1.774,1.665h-1.608L34.563,70.442    z"/>
		<path fill="#FFFFFF" d="M36.587,77.47v-0.027c0-2.135,1.719-3.868,4.034-3.868c2.287,0,4.006,1.692,4.006,3.84v0.028    c0,2.135-1.719,3.866-4.034,3.866C38.306,81.309,36.587,79.617,36.587,77.47z M42.548,77.47v-0.027    c0-1.095-0.791-2.051-1.955-2.051c-1.206,0-1.926,0.913-1.926,2.022v0.028c0,1.096,0.79,2.051,1.954,2.051    C41.828,79.493,42.548,78.578,42.548,77.47z"/>
		<path fill="#FFFFFF" d="M50.534,71.439h1.968l4.546,5.975v-5.975h2.107v9.703h-1.816l-4.699-6.168v6.168h-2.106V71.439z"/>
		<path fill="#FFFFFF" d="M60.904,77.47v-0.027c0-2.121,1.51-3.868,3.672-3.868c2.481,0,3.618,1.927,3.618,4.034    c0,0.167-0.014,0.348-0.028,0.554h-5.169c0.207,0.958,0.873,1.455,1.815,1.455c0.707,0,1.206-0.221,1.802-0.763l1.206,1.068    c-0.707,0.873-1.691,1.386-3.035,1.386C62.554,81.309,60.904,79.743,60.904,77.47z M66.143,76.846    c-0.125-0.941-0.678-1.579-1.566-1.579c-0.887,0-1.44,0.622-1.607,1.579H66.143z"/>
		<path fill="#FFFFFF" d="M69.804,82.612l0.721-1.581c0.776,0.431,1.511,0.68,2.509,0.68c1.442,0,2.121-0.693,2.121-2.024v-0.359    c-0.624,0.763-1.303,1.206-2.426,1.206c-1.733,0-3.299-1.247-3.299-3.466V77.04c0-2.218,1.594-3.466,3.299-3.466    c1.151,0,1.829,0.485,2.397,1.109v-0.97h2.107v5.752c0,1.316-0.319,2.302-0.942,2.924c-0.708,0.708-1.761,0.999-3.203,0.999    C71.869,83.389,70.747,83.111,69.804,82.612z M75.155,77.067V77.04c0-1.012-0.778-1.719-1.816-1.719    c-1.025,0-1.802,0.707-1.802,1.719v0.027c0,1.041,0.762,1.719,1.802,1.719C74.377,78.786,75.155,78.079,75.155,77.067z"/>
		<path fill="#FFFFFF" d="M79.121,73.714h2.107v1.496c0.429-1.013,1.109-1.69,2.37-1.636v2.204h-0.11c-1.399,0-2.26,0.832-2.26,2.62    v2.744h-2.107V73.714z"/>
		<path fill="#FFFFFF" d="M84.556,77.47v-0.027c0-2.135,1.718-3.868,4.033-3.868c2.288,0,4.007,1.692,4.007,3.84v0.028    c0,2.135-1.719,3.866-4.034,3.866C86.274,81.309,84.556,79.617,84.556,77.47z M90.516,77.47v-0.027    c0-1.095-0.791-2.051-1.955-2.051c-1.207,0-1.927,0.913-1.927,2.022v0.028c0,1.096,0.79,2.051,1.954,2.051    C89.794,79.493,90.516,78.578,90.516,77.47z"/>
	</g>
</g>
</svg>