<svg enable-background="new 35 0 210 28" height="28" viewBox="35 0 210 28" width="210" xmlns="http://www.w3.org/2000/svg"><g fill="#fff"><path d="m52.64 15.429c0 3.079-.7 4.899-2.1 6.3s-3.64 2.268-6.72 2.268-5.32-.867-6.72-2.268-2.1-3.221-2.1-6.3v-11.062h6.356v11.342c0 1.146.224 1.68.644 2.1s.98.699 1.82.699 1.4-.279 1.82-.699.616-.98.616-2.1v-11.342h6.384z"/><path d="m75.88 23.688h-6.58l-5.88-10.779s.14 2.1.14 3.5v7.279h-6.16v-19.321h6.86l5.6 10.78s-.14-2.101-.14-3.5v-7.28h6.16z"/><path d="m98.28 23.688h-7.28l-3.08-6.439h-.812v6.439h-6.328v-19.321h8.399c2.381 0 4.2.42 5.601 1.4 1.399.98 2.38 2.66 2.38 4.76 0 3.92-2.38 5.32-3.221 5.824zm-8.204-14.196c-.28-.225-.7-.363-1.4-.363h-1.596v3.359h1.596c.7 0 1.148-.141 1.4-.337.309-.224.699-.504.699-1.344s-.42-1.119-.699-1.315z"/><path d="m119.839 23.688h-6.579l-5.881-10.779s.141 2.1.141 3.5v7.279h-6.16v-19.321h6.859l5.6 10.78s-.139-2.101-.139-3.5v-7.28h6.159z"/><path d="m133.573 8.494v-4.184h.812v4.135c0 1.554.822 2.427 2.201 2.427 1.326 0 2.17-.802 2.17-2.375v-4.187h.812v4.123c0 2.101-1.203 3.188-3.004 3.188-1.776 0-2.991-1.09-2.991-3.127z"/><path d="m141.355 6.191h.791v.926c.351-.576.906-1.039 1.82-1.039 1.286 0 2.037.863 2.037 2.129v3.301h-.792v-3.106c0-.988-.534-1.605-1.472-1.605-.914 0-1.596.67-1.596 1.666v3.045h-.791z"/><path d="m147.71 4.154h.904v.875h-.904zm.052 2.037h.793v5.314h-.793z"/><path d="m149.868 6.191h.875l1.789 4.412 1.801-4.412h.854l-2.314 5.355h-.699z"/><path d="m158.771 10.941c.73 0 1.244-.297 1.679-.75l.491.441c-.532.598-1.182.996-2.188.996-1.462 0-2.654-1.121-2.654-2.775 0-1.541 1.08-2.775 2.553-2.775 1.572 0 2.479 1.254 2.479 2.816 0 .072 0 .154-.01.277h-4.217c.112 1.124.933 1.77 1.867 1.77zm1.554-2.406c-.093-.969-.646-1.789-1.695-1.789-.915 0-1.614.762-1.729 1.789z"/><path d="m162.516 6.191h.791v1.389c.391-.885 1.162-1.522 2.17-1.481v.854h-.062c-1.162 0-2.108.834-2.108 2.438v2.117h-.791z"/><path d="m166.234 10.828.402-.564c.572.434 1.213.679 1.84.679.64 0 1.103-.327 1.103-.844v-.021c0-.535-.629-.74-1.328-.938-.832-.236-1.758-.523-1.758-1.502v-.02c0-.916.76-1.522 1.812-1.522.646 0 1.366.228 1.911.587l-.358.598c-.494-.318-1.062-.516-1.574-.516-.627 0-1.029.329-1.029.771v.021c0 .504.658.698 1.369.916.822.245 1.707.563 1.707 1.521v.021c0 1.008-.834 1.596-1.893 1.596-.762 0-1.605-.299-2.204-.783z"/><path d="m171.818 4.154h.904v.875h-.904zm.052 2.037h.791v5.314h-.791z"/><path d="m174.193 8.865v-.021c0-1.737 1.265-2.766 2.539-2.766.988 0 1.625.533 2.037 1.131v-3.209h.791v7.508h-.791v-1.07c-.433.639-1.062 1.184-2.037 1.184-1.274-.001-2.539-1.009-2.539-2.757zm4.61-.011v-.02c0-1.227-.938-2.047-1.925-2.047-1.028 0-1.871.762-1.871 2.047v.021c0 1.256.863 2.058 1.871 2.058.986-.003 1.925-.835 1.925-2.059z"/><path d="m180.928 9.965v-.022c0-1.143.926-1.736 2.271-1.736.678 0 1.152.092 1.625.226v-.164c0-.944-.576-1.438-1.574-1.438-.627 0-1.12.153-1.611.381l-.239-.65c.588-.268 1.152-.451 1.935-.451.752 0 1.338.205 1.72.586.368.369.555.885.555 1.562v3.25h-.781v-.793c-.371.474-.977.904-1.912.904-1.002.001-1.989-.565-1.989-1.655zm3.906-.411v-.492c-.391-.112-.902-.228-1.553-.228-.985 0-1.553.433-1.553 1.068v.021c0 .668.617 1.06 1.336 1.06.979-.001 1.77-.587 1.77-1.429z"/><path d="m186.975 8.865v-.021c0-1.737 1.265-2.766 2.539-2.766.986 0 1.625.533 2.037 1.131v-3.209h.791v7.508h-.791v-1.07c-.434.639-1.062 1.184-2.037 1.184-1.278-.001-2.539-1.009-2.539-2.757zm4.605-.011v-.02c0-1.227-.938-2.047-1.924-2.047-1.029 0-1.871.762-1.871 2.047v.021c0 1.256.863 2.058 1.871 2.058.987-.003 1.924-.835 1.924-2.059z"/><path d="m197.324 4.31h.762l4.535 5.771v-5.771h.791v7.198h-.646l-4.646-5.903v5.903h-.793v-7.198z"/><path d="m204.912 9.965v-.022c0-1.143.927-1.736 2.271-1.736.68 0 1.151.092 1.625.226v-.164c0-.944-.574-1.438-1.572-1.438-.627 0-1.121.153-1.615.381l-.234-.648c.586-.268 1.15-.451 1.934-.451.75 0 1.337.205 1.718.586.371.369.558.885.558 1.562v3.25h-.783v-.793c-.369.474-.978.904-1.912.904-1.004-.001-1.99-.567-1.99-1.657zm3.908-.411v-.492c-.391-.112-.906-.228-1.553-.228-.988 0-1.556.433-1.556 1.068v.021c0 .668.617 1.06 1.339 1.06.977-.001 1.77-.587 1.77-1.429z"/><path d="m210.938 8.875v-.021c0-1.5 1.174-2.775 2.727-2.775 1.008 0 1.635.422 2.129.945l-.525.557c-.42-.442-.895-.803-1.612-.803-1.08 0-1.902.914-1.902 2.057v.021c0 1.15.843 2.066 1.953 2.066.681 0 1.203-.34 1.625-.793l.504.475c-.534.598-1.172 1.027-2.17 1.027-1.558 0-2.729-1.264-2.729-2.756z"/><path d="m217.156 4.154h.906v.875h-.906zm.051 2.037h.793v5.314h-.793z"/><path d="m219.514 8.875v-.021c0-1.5 1.172-2.775 2.773-2.775 1.595 0 2.77 1.254 2.77 2.756v.021c0 1.5-1.186 2.775-2.787 2.775-1.594 0-2.756-1.254-2.756-2.756zm4.728 0v-.021c0-1.143-.854-2.076-1.975-2.076-1.152 0-1.943.936-1.943 2.057v.021c0 1.143.842 2.066 1.963 2.066 1.154 0 1.955-.926 1.955-2.047z"/><path d="m226.482 6.191h.791v.926c.35-.576.904-1.039 1.82-1.039 1.284 0 2.036.863 2.036 2.129v3.301h-.793v-3.106c0-.988-.534-1.605-1.471-1.605-.914 0-1.595.67-1.595 1.666v3.045h-.791v-5.317z"/><path d="m232.414 9.965v-.022c0-1.143.928-1.736 2.271-1.736.68 0 1.151.092 1.625.226v-.164c0-.944-.574-1.438-1.572-1.438-.627 0-1.121.153-1.615.381l-.234-.648c.586-.268 1.15-.451 1.935-.451.75 0 1.336.205 1.717.586.371.369.558.885.558 1.562v3.25h-.783v-.793c-.369.474-.978.904-1.912.904-1.004-.001-1.99-.567-1.99-1.657zm3.908-.411v-.492c-.391-.112-.906-.228-1.553-.228-.988 0-1.556.433-1.556 1.068v.021c0 .668.617 1.06 1.339 1.06.977-.001 1.77-.587 1.77-1.429z"/><path d="m238.839 4h.793v7.508h-.793z"/><path d="m133.184 21.871v-.021c0-1.736 1.266-2.766 2.541-2.766.987 0 1.625.535 2.036 1.131v-3.209h.792v7.508h-.792v-1.068c-.432.637-1.06 1.182-2.036 1.182-1.276-.001-2.541-1.009-2.541-2.757zm4.607-.01v-.021c0-1.223-.936-2.047-1.922-2.047-1.029 0-1.873.762-1.873 2.047v.021c0 1.254.865 2.057 1.873 2.057.986 0 1.922-.834 1.922-2.057z"/><path d="m142.666 23.949c.73 0 1.244-.299 1.677-.752l.493.443c-.534.596-1.182.996-2.189.996-1.461 0-2.654-1.121-2.654-2.775 0-1.543 1.08-2.777 2.551-2.777 1.573 0 2.479 1.254 2.479 2.818 0 .072 0 .154-.01.277h-4.217c.112 1.122.934 1.77 1.87 1.77zm1.553-2.408c-.092-.965-.647-1.789-1.696-1.789-.915 0-1.614.762-1.728 1.789z"/><path d="m149.475 17.314h3.291c.916 0 1.625.258 2.098.73.401.402.617.967.617 1.646v.02c0 1.162-.627 1.893-1.543 2.232l1.76 2.57h-1.852l-1.543-2.303h-1.244v2.303h-1.584zm3.188 3.498c.771 0 1.214-.412 1.214-1.02v-.02c0-.68-.474-1.029-1.245-1.029h-1.573v2.068h1.604z"/><path d="m156.818 19.002h1.562v5.512h-1.562zm1.306-2.428 1.347.586-1.336 1.234h-1.152z"/><path d="m159.584 21.789v-.021c0-1.584 1.275-2.869 2.993-2.869 1.707 0 2.972 1.266 2.972 2.85v.02c0 1.584-1.275 2.869-2.992 2.869-1.707-.001-2.973-1.265-2.973-2.849zm4.422 0v-.021c0-.812-.586-1.521-1.449-1.521-.895 0-1.43.689-1.43 1.502v.02c0 .812.586 1.523 1.45 1.523.895-.001 1.429-.69 1.429-1.503z"/><path d="m169.93 17.314h1.461l3.373 4.434v-4.434h1.563v7.199h-1.347l-3.486-4.576v4.576h-1.564z"/><path d="m177.623 21.789v-.021c0-1.572 1.121-2.869 2.725-2.869 1.842 0 2.686 1.43 2.686 2.994 0 .123-.012.266-.021.41h-3.836c.154.709.648 1.08 1.348 1.08.523 0 .904-.164 1.336-.566l.896.793c-.515.637-1.255 1.027-2.253 1.027-1.657 0-2.881-1.162-2.881-2.848zm3.887-.463c-.092-.699-.504-1.172-1.162-1.172-.647 0-1.068.463-1.192 1.172z"/><path d="m184.226 25.604.535-1.172c.565.318 1.132.504 1.861.504 1.069 0 1.573-.514 1.573-1.502v-.268c-.463.557-.967.896-1.799.896-1.286 0-2.448-.938-2.448-2.572v-.02c0-1.646 1.183-2.572 2.448-2.572.854 0 1.357.361 1.778.822v-.719h1.563v4.268c0 .988-.236 1.707-.699 2.17-.514.514-1.307.74-2.376.74-.893.001-1.736-.204-2.436-.575zm3.969-4.114v-.02c0-.752-.586-1.275-1.348-1.275-.76 0-1.336.523-1.336 1.275v.02c0 .762.576 1.275 1.336 1.275.762.001 1.348-.523 1.348-1.275z"/><path d="m191.137 19.002h1.563v1.111c.319-.762.833-1.256 1.759-1.215v1.635h-.082c-1.039 0-1.677.629-1.677 1.945v2.035h-1.563z"/><path d="m195.168 21.789v-.021c0-1.584 1.275-2.869 2.993-2.869 1.708 0 2.972 1.266 2.972 2.85v.02c0 1.584-1.275 2.869-2.992 2.869-1.707-.001-2.973-1.265-2.973-2.849zm4.422 0v-.021c0-.812-.586-1.521-1.449-1.521-.895 0-1.43.689-1.43 1.502v.02c0 .812.586 1.523 1.45 1.523.896-.001 1.429-.69 1.429-1.503z"/></g></svg>